<mxfile host="65bd71144e">
    <diagram id="KNUGc_UYLLqr20vfGgZg" name="Page-1">
        <mxGraphModel dx="1626" dy="776" grid="1" gridSize="10" guides="1" tooltips="1" connect="1" arrows="1" fold="1" page="1" pageScale="1" pageWidth="850" pageHeight="1100" math="0" shadow="0">
            <root>
                <mxCell id="0"/>
                <mxCell id="1" parent="0"/>
                <mxCell id="3" value="" style="verticalLabelPosition=bottom;html=1;verticalAlign=top;align=center;shape=mxgraph.floorplan.wall;fillColor=strokeColor;" parent="1" vertex="1">
                    <mxGeometry x="170" y="160" width="100" height="10" as="geometry"/>
                </mxCell>
                <mxCell id="4" value="" style="verticalLabelPosition=bottom;html=1;verticalAlign=top;align=center;shape=mxgraph.floorplan.wallCorner;fillColor=strokeColor;" parent="1" vertex="1">
                    <mxGeometry x="100" y="110" width="250" height="340" as="geometry"/>
                </mxCell>
                <mxCell id="9" value="" style="verticalLabelPosition=bottom;html=1;verticalAlign=top;align=center;shape=mxgraph.floorplan.chair;shadow=0;" parent="1" vertex="1">
                    <mxGeometry x="410" y="490" width="40" height="52" as="geometry"/>
                </mxCell>
                <mxCell id="10" value="" style="verticalLabelPosition=bottom;html=1;verticalAlign=top;align=center;shape=mxgraph.floorplan.chair;shadow=0;direction=west;" parent="1" vertex="1">
                    <mxGeometry x="410" y="578" width="40" height="52" as="geometry"/>
                </mxCell>
                <mxCell id="11" value="" style="verticalLabelPosition=bottom;html=1;verticalAlign=top;align=center;shape=mxgraph.floorplan.chair;shadow=0;direction=north;" parent="1" vertex="1">
                    <mxGeometry x="360" y="540" width="52" height="40" as="geometry"/>
                </mxCell>
                <mxCell id="12" value="" style="verticalLabelPosition=bottom;html=1;verticalAlign=top;align=center;shape=mxgraph.floorplan.chair;shadow=0;direction=south" parent="1" vertex="1">
                    <mxGeometry x="448" y="540" width="52" height="40" as="geometry"/>
                </mxCell>
                <mxCell id="13" value="" style="shape=ellipse;shadow=0;" parent="1" vertex="1">
                    <mxGeometry x="380" y="510" width="100" height="100" as="geometry"/>
                </mxCell>
                <mxCell id="14" value="" style="verticalLabelPosition=bottom;html=1;verticalAlign=top;align=center;shape=mxgraph.floorplan.chair;shadow=0;" parent="1" vertex="1">
                    <mxGeometry x="50" y="590" width="40" height="52" as="geometry"/>
                </mxCell>
                <mxCell id="15" value="" style="verticalLabelPosition=bottom;html=1;verticalAlign=top;align=center;shape=mxgraph.floorplan.chair;shadow=0;rotation=180;" parent="1" vertex="1">
                    <mxGeometry x="50" y="658" width="40" height="52" as="geometry"/>
                </mxCell>
                <mxCell id="16" value="" style="shape=rect;shadow=0;" parent="1" vertex="1">
                    <mxGeometry x="30" y="610" width="80" height="80" as="geometry"/>
                </mxCell>
                <mxCell id="17" value="" style="verticalLabelPosition=bottom;html=1;verticalAlign=top;align=center;shape=mxgraph.floorplan.chair;shadow=0;" parent="1" vertex="1">
                    <mxGeometry x="405" y="680" width="40" height="52" as="geometry"/>
                </mxCell>
                <mxCell id="18" value="" style="verticalLabelPosition=bottom;html=1;verticalAlign=top;align=center;shape=mxgraph.floorplan.chair;shadow=0;direction=west;" parent="1" vertex="1">
                    <mxGeometry x="405" y="768" width="40" height="52" as="geometry"/>
                </mxCell>
                <mxCell id="19" value="" style="verticalLabelPosition=bottom;html=1;verticalAlign=top;align=center;shape=mxgraph.floorplan.chair;shadow=0;direction=north;" parent="1" vertex="1">
                    <mxGeometry x="355" y="730" width="52" height="40" as="geometry"/>
                </mxCell>
                <mxCell id="20" value="" style="verticalLabelPosition=bottom;html=1;verticalAlign=top;align=center;shape=mxgraph.floorplan.chair;shadow=0;direction=south" parent="1" vertex="1">
                    <mxGeometry x="443" y="730" width="52" height="40" as="geometry"/>
                </mxCell>
                <mxCell id="21" value="" style="shape=ellipse;shadow=0;" parent="1" vertex="1">
                    <mxGeometry x="375" y="700" width="100" height="100" as="geometry"/>
                </mxCell>
            </root>
        </mxGraphModel>
    </diagram>
    <diagram id="esscJdNLL_0JPU13ATKb" name="Page-2">
        <mxGraphModel dx="1163" dy="149" grid="1" gridSize="10" guides="1" tooltips="1" connect="1" arrows="1" fold="1" page="1" pageScale="1" pageWidth="850" pageHeight="1100" math="0" shadow="0">
            <root>
                <mxCell id="0"/>
                <mxCell id="1" parent="0"/>
                <UserObject label="" mermaidData="{&#10;  &quot;data&quot;: &quot;graph TD\n    User[User] --&gt;|Accesses via| Client[fa:fa-mobile Web or Mobile Client]\n    Client --&gt;|API Request| APIGateway[[fa:fa-cloud AWS API Gateway]]\n    APIGateway --&gt;|Triggers| LambdaFunction[[fa:fa-lambda AWS Lambda Function]]\n    LambdaFunction --&gt;|Reads/Writes| DynamoDB[[fa:fa-database Amazon DynamoDB]]\n    LambdaFunction --&gt;|Logs| CloudWatch[[fa:fa-chart-line Amazon CloudWatch]]\n    APIGateway --&gt;|Authentication| Cognito[[fa:fa-users Amazon Cognito]]\n    \n    style User fill:#f9f,stroke:#333,stroke-width:2px\n    style Client fill:#ff9,stroke:#333,stroke-width:2px\n    style APIGateway fill:#9ff,stroke:#333,stroke-width:2px\n    style LambdaFunction fill:#9f9,stroke:#333,stroke-width:2px\n    style DynamoDB fill:#f99,stroke:#333,stroke-width:2px\n    style CloudWatch fill:#99f,stroke:#333,stroke-width:2px\n    style Cognito fill:#cfc,stroke:#333,stroke-width:2px\n\n&quot;,&#10;  &quot;config&quot;: {&#10;    &quot;theme&quot;: &quot;neutral&quot;,&#10;    &quot;arrowMarkerAbsolute&quot;: false,&#10;    &quot;flowchart&quot;: {&#10;      &quot;htmlLabels&quot;: false&#10;    },&#10;    &quot;sequence&quot;: {&#10;      &quot;diagramMarginX&quot;: 50,&#10;      &quot;diagramMarginY&quot;: 10,&#10;      &quot;actorMargin&quot;: 50,&#10;      &quot;width&quot;: 150,&#10;      &quot;height&quot;: 65,&#10;      &quot;boxMargin&quot;: 10,&#10;      &quot;boxTextMargin&quot;: 5,&#10;      &quot;noteMargin&quot;: 10,&#10;      &quot;messageMargin&quot;: 35,&#10;      &quot;mirrorActors&quot;: true,&#10;      &quot;bottomMarginAdj&quot;: 1,&#10;      &quot;useMaxWidth&quot;: true,&#10;      &quot;rightAngles&quot;: false,&#10;      &quot;showSequenceNumbers&quot;: false&#10;    },&#10;    &quot;gantt&quot;: {&#10;      &quot;titleTopMargin&quot;: 25,&#10;      &quot;barHeight&quot;: 20,&#10;      &quot;barGap&quot;: 4,&#10;      &quot;topPadding&quot;: 50,&#10;      &quot;leftPadding&quot;: 75,&#10;      &quot;gridLineStartPadding&quot;: 35,&#10;      &quot;fontSize&quot;: 11,&#10;      &quot;fontFamily&quot;: &quot;\&quot;Open-Sans\&quot;, \&quot;sans-serif\&quot;&quot;,&#10;      &quot;numberSectionStyles&quot;: 4,&#10;      &quot;axisFormat&quot;: &quot;%Y-%m-%d&quot;&#10;    },&#10;    &quot;securityLevel&quot;: &quot;strict&quot;,&#10;    &quot;startOnLoad&quot;: false,&#10;    &quot;themeVariables&quot;: {&#10;      &quot;primaryColor&quot;: &quot;#eee&quot;,&#10;      &quot;contrast&quot;: &quot;#707070&quot;,&#10;      &quot;secondaryColor&quot;: &quot;hsl(0, 0%, 98.9215686275%)&quot;,&#10;      &quot;background&quot;: &quot;#ffffff&quot;,&#10;      &quot;tertiaryColor&quot;: &quot;hsl(-160, 0%, 93.3333333333%)&quot;,&#10;      &quot;primaryBorderColor&quot;: &quot;hsl(0, 0%, 83.3333333333%)&quot;,&#10;      &quot;secondaryBorderColor&quot;: &quot;hsl(0, 0%, 88.9215686275%)&quot;,&#10;      &quot;tertiaryBorderColor&quot;: &quot;hsl(-160, 0%, 83.3333333333%)&quot;,&#10;      &quot;primaryTextColor&quot;: &quot;#111111&quot;,&#10;      &quot;secondaryTextColor&quot;: &quot;rgb(2.7499999999, 2.7499999999, 2.7499999999)&quot;,&#10;      &quot;tertiaryTextColor&quot;: &quot;rgb(17.0000000001, 17.0000000001, 17.0000000001)&quot;,&#10;      &quot;lineColor&quot;: &quot;#666&quot;,&#10;      &quot;textColor&quot;: &quot;#000000&quot;,&#10;      &quot;mainBkg&quot;: &quot;#eee&quot;,&#10;      &quot;secondBkg&quot;: &quot;hsl(0, 0%, 98.9215686275%)&quot;,&#10;      &quot;border1&quot;: &quot;#999&quot;,&#10;      &quot;border2&quot;: &quot;#707070&quot;,&#10;      &quot;note&quot;: &quot;#ffa&quot;,&#10;      &quot;text&quot;: &quot;#333&quot;,&#10;      &quot;critical&quot;: &quot;#d42&quot;,&#10;      &quot;done&quot;: &quot;#bbb&quot;,&#10;      &quot;arrowheadColor&quot;: &quot;#333333&quot;,&#10;      &quot;fontFamily&quot;: &quot;\&quot;trebuchet ms\&quot;, verdana, arial, sans-serif&quot;,&#10;      &quot;fontSize&quot;: &quot;16px&quot;,&#10;      &quot;nodeBkg&quot;: &quot;#eee&quot;,&#10;      &quot;nodeBorder&quot;: &quot;#999&quot;,&#10;      &quot;clusterBkg&quot;: &quot;hsl(0, 0%, 98.9215686275%)&quot;,&#10;      &quot;clusterBorder&quot;: &quot;#707070&quot;,&#10;      &quot;defaultLinkColor&quot;: &quot;#666&quot;,&#10;      &quot;titleColor&quot;: &quot;#333&quot;,&#10;      &quot;edgeLabelBackground&quot;: &quot;white&quot;,&#10;      &quot;actorBorder&quot;: &quot;hsl(0, 0%, 83%)&quot;,&#10;      &quot;actorBkg&quot;: &quot;#eee&quot;,&#10;      &quot;actorTextColor&quot;: &quot;#333&quot;,&#10;      &quot;actorLineColor&quot;: &quot;#666&quot;,&#10;      &quot;signalColor&quot;: &quot;#333&quot;,&#10;      &quot;signalTextColor&quot;: &quot;#333&quot;,&#10;      &quot;labelBoxBkgColor&quot;: &quot;#eee&quot;,&#10;      &quot;labelBoxBorderColor&quot;: &quot;hsl(0, 0%, 83%)&quot;,&#10;      &quot;labelTextColor&quot;: &quot;#333&quot;,&#10;      &quot;loopTextColor&quot;: &quot;#333&quot;,&#10;      &quot;noteBorderColor&quot;: &quot;#999&quot;,&#10;      &quot;noteBkgColor&quot;: &quot;#666&quot;,&#10;      &quot;noteTextColor&quot;: &quot;#fff&quot;,&#10;      &quot;activationBorderColor&quot;: &quot;#666&quot;,&#10;      &quot;activationBkgColor&quot;: &quot;#f4f4f4&quot;,&#10;      &quot;sequenceNumberColor&quot;: &quot;white&quot;,&#10;      &quot;sectionBkgColor&quot;: &quot;hsl(0, 0%, 73.9215686275%)&quot;,&#10;      &quot;altSectionBkgColor&quot;: &quot;white&quot;,&#10;      &quot;sectionBkgColor2&quot;: &quot;hsl(0, 0%, 73.9215686275%)&quot;,&#10;      &quot;excludeBkgColor&quot;: &quot;#eeeeee&quot;,&#10;      &quot;taskBorderColor&quot;: &quot;hsl(0, 0%, 33.9215686275%)&quot;,&#10;      &quot;taskBkgColor&quot;: &quot;#707070&quot;,&#10;      &quot;taskTextLightColor&quot;: &quot;white&quot;,&#10;      &quot;taskTextColor&quot;: &quot;white&quot;,&#10;      &quot;taskTextDarkColor&quot;: &quot;#333&quot;,&#10;      &quot;taskTextOutsideColor&quot;: &quot;#333&quot;,&#10;      &quot;taskTextClickableColor&quot;: &quot;#003163&quot;,&#10;      &quot;activeTaskBorderColor&quot;: &quot;hsl(0, 0%, 33.9215686275%)&quot;,&#10;      &quot;activeTaskBkgColor&quot;: &quot;#eee&quot;,&#10;      &quot;gridColor&quot;: &quot;hsl(0, 0%, 90%)&quot;,&#10;      &quot;doneTaskBkgColor&quot;: &quot;#bbb&quot;,&#10;      &quot;doneTaskBorderColor&quot;: &quot;#666&quot;,&#10;      &quot;critBkgColor&quot;: &quot;#d42&quot;,&#10;      &quot;critBorderColor&quot;: &quot;hsl(10.9090909091, 73.3333333333%, 40%)&quot;,&#10;      &quot;todayLineColor&quot;: &quot;#d42&quot;,&#10;      &quot;personBorder&quot;: &quot;calculated&quot;,&#10;      &quot;personBkg&quot;: &quot;calculated&quot;,&#10;      &quot;labelColor&quot;: &quot;black&quot;,&#10;      &quot;errorBkgColor&quot;: &quot;#552222&quot;,&#10;      &quot;errorTextColor&quot;: &quot;#552222&quot;,&#10;      &quot;transitionColor&quot;: &quot;#000&quot;,&#10;      &quot;transitionLabelColor&quot;: &quot;#000000&quot;,&#10;      &quot;stateLabelColor&quot;: &quot;#111111&quot;,&#10;      &quot;stateBkg&quot;: &quot;#eee&quot;,&#10;      &quot;labelBackgroundColor&quot;: &quot;#eee&quot;,&#10;      &quot;compositeBackground&quot;: &quot;#ffffff&quot;,&#10;      &quot;altBackground&quot;: &quot;#f4f4f4&quot;,&#10;      &quot;compositeTitleBackground&quot;: &quot;#eee&quot;,&#10;      &quot;stateBorder&quot;: &quot;#000&quot;,&#10;      &quot;innerEndBackground&quot;: &quot;hsl(0, 0%, 83.3333333333%)&quot;,&#10;      &quot;specialStateColor&quot;: &quot;#222&quot;,&#10;      &quot;classText&quot;: &quot;#111111&quot;,&#10;      &quot;fillType0&quot;: &quot;#eee&quot;,&#10;      &quot;fillType1&quot;: &quot;hsl(0, 0%, 98.9215686275%)&quot;,&#10;      &quot;fillType2&quot;: &quot;hsl(64, 0%, 93.3333333333%)&quot;,&#10;      &quot;fillType3&quot;: &quot;hsl(64, 0%, 98.9215686275%)&quot;,&#10;      &quot;fillType4&quot;: &quot;hsl(-64, 0%, 93.3333333333%)&quot;,&#10;      &quot;fillType5&quot;: &quot;hsl(-64, 0%, 98.9215686275%)&quot;,&#10;      &quot;fillType6&quot;: &quot;hsl(128, 0%, 93.3333333333%)&quot;,&#10;      &quot;fillType7&quot;: &quot;hsl(128, 0%, 98.9215686275%)&quot;,&#10;      &quot;pie1&quot;: &quot;#F4F4F4&quot;,&#10;      &quot;pie2&quot;: &quot;#555&quot;,&#10;      &quot;pie3&quot;: &quot;#BBB&quot;,&#10;      &quot;pie4&quot;: &quot;#777&quot;,&#10;      &quot;pie5&quot;: &quot;#999&quot;,&#10;      &quot;pie6&quot;: &quot;#DDD&quot;,&#10;      &quot;pie7&quot;: &quot;#FFF&quot;,&#10;      &quot;pie8&quot;: &quot;#DDD&quot;,&#10;      &quot;pie9&quot;: &quot;#BBB&quot;,&#10;      &quot;pie10&quot;: &quot;#999&quot;,&#10;      &quot;pie11&quot;: &quot;#777&quot;,&#10;      &quot;pie12&quot;: &quot;#555&quot;,&#10;      &quot;pieTitleTextSize&quot;: &quot;25px&quot;,&#10;      &quot;pieTitleTextColor&quot;: &quot;#333&quot;,&#10;      &quot;pieSectionTextSize&quot;: &quot;17px&quot;,&#10;      &quot;pieSectionTextColor&quot;: &quot;#000000&quot;,&#10;      &quot;pieLegendTextSize&quot;: &quot;17px&quot;,&#10;      &quot;pieLegendTextColor&quot;: &quot;#333&quot;,&#10;      &quot;pieStrokeColor&quot;: &quot;black&quot;,&#10;      &quot;pieStrokeWidth&quot;: &quot;2px&quot;,&#10;      &quot;pieOpacity&quot;: &quot;0.7&quot;,&#10;      &quot;requirementBackground&quot;: &quot;#eee&quot;,&#10;      &quot;requirementBorderColor&quot;: &quot;hsl(0, 0%, 83.3333333333%)&quot;,&#10;      &quot;requirementBorderSize&quot;: &quot;hsl(0, 0%, 83.3333333333%)&quot;,&#10;      &quot;requirementTextColor&quot;: &quot;#111111&quot;,&#10;      &quot;relationColor&quot;: &quot;#666&quot;,&#10;      &quot;relationLabelBackground&quot;: &quot;white&quot;,&#10;      &quot;relationLabelColor&quot;: &quot;#333&quot;,&#10;      &quot;git0&quot;: &quot;hsl(0, 0%, 70.6862745098%)&quot;,&#10;      &quot;git1&quot;: &quot;#555&quot;,&#10;      &quot;git2&quot;: &quot;#BBB&quot;,&#10;      &quot;git3&quot;: &quot;#777&quot;,&#10;      &quot;git4&quot;: &quot;#999&quot;,&#10;      &quot;git5&quot;: &quot;#DDD&quot;,&#10;      &quot;git6&quot;: &quot;#FFF&quot;,&#10;      &quot;git7&quot;: &quot;#DDD&quot;,&#10;      &quot;gitInv0&quot;: &quot;rgb(74.75, 74.75, 74.75)&quot;,&#10;      &quot;gitInv1&quot;: &quot;#aaaaaa&quot;,&#10;      &quot;gitInv2&quot;: &quot;#444444&quot;,&#10;      &quot;gitInv3&quot;: &quot;#888888&quot;,&#10;      &quot;gitInv4&quot;: &quot;#666666&quot;,&#10;      &quot;gitInv5&quot;: &quot;#222222&quot;,&#10;      &quot;gitInv6&quot;: &quot;#000000&quot;,&#10;      &quot;gitInv7&quot;: &quot;#222222&quot;,&#10;      &quot;branchLabelColor&quot;: &quot;#333&quot;,&#10;      &quot;gitBranchLabel0&quot;: &quot;#333&quot;,&#10;      &quot;gitBranchLabel1&quot;: &quot;white&quot;,&#10;      &quot;gitBranchLabel2&quot;: &quot;#333&quot;,&#10;      &quot;gitBranchLabel3&quot;: &quot;white&quot;,&#10;      &quot;gitBranchLabel4&quot;: &quot;#333&quot;,&#10;      &quot;gitBranchLabel5&quot;: &quot;#333&quot;,&#10;      &quot;gitBranchLabel6&quot;: &quot;#333&quot;,&#10;      &quot;gitBranchLabel7&quot;: &quot;#333&quot;,&#10;      &quot;tagLabelColor&quot;: &quot;#111111&quot;,&#10;      &quot;tagLabelBackground&quot;: &quot;#eee&quot;,&#10;      &quot;tagLabelBorder&quot;: &quot;hsl(0, 0%, 83.3333333333%)&quot;,&#10;      &quot;tagLabelFontSize&quot;: &quot;10px&quot;,&#10;      &quot;commitLabelColor&quot;: &quot;rgb(2.7499999999, 2.7499999999, 2.7499999999)&quot;,&#10;      &quot;commitLabelBackground&quot;: &quot;hsl(0, 0%, 98.9215686275%)&quot;,&#10;      &quot;commitLabelFontSize&quot;: &quot;10px&quot;&#10;    }&#10;  }&#10;}" id="DZxN7l-nGZsO6GZUW6Sb-1">
                    <mxCell style="shape=image;noLabel=1;verticalAlign=top;imageAspect=1;image=data:image/svg+xml,PHN2ZyB2aWV3Qm94PSIwIDAgNzUzLjk0NzI2NTYyNSA0ODciIHN0eWxlPSJtYXgtd2lkdGg6IDc1My45NDcyNjU2MjVweDsiIGhlaWdodD0iNDg3IiBhcmlhLWxhYmVsbGVkYnk9ImNoYXJ0LXRpdGxlLWdlTWVybWFpZE91dHB1dC0xNzI1ODEzMTUxNDc1IGNoYXJ0LWRlc2MtZ2VNZXJtYWlkT3V0cHV0LTE3MjU4MTMxNTE0NzUiIHJvbGU9ImltZyIgeG1sbnM6eGxpbms9Imh0dHA6Ly93d3cudzMub3JnLzE5OTkveGxpbmsiIHhtbG5zPSJodHRwOi8vd3d3LnczLm9yZy8yMDAwL3N2ZyIgd2lkdGg9IjEwMCUiIGlkPSJnZU1lcm1haWRPdXRwdXQtMTcyNTgxMzE1MTQ3NSI+PHRpdGxlIGlkPSJjaGFydC10aXRsZS1nZU1lcm1haWRPdXRwdXQtMTcyNTgxMzE1MTQ3NSI+PC90aXRsZT48ZGVzYyBpZD0iY2hhcnQtZGVzYy1nZU1lcm1haWRPdXRwdXQtMTcyNTgxMzE1MTQ3NSI+PC9kZXNjPjxzdHlsZT4jZ2VNZXJtYWlkT3V0cHV0LTE3MjU4MTMxNTE0NzUge2ZvbnQtZmFtaWx5OiJ0cmVidWNoZXQgbXMiLHZlcmRhbmEsYXJpYWwsc2Fucy1zZXJpZjtmb250LXNpemU6MTZweDtmaWxsOiMwMDAwMDA7fSNnZU1lcm1haWRPdXRwdXQtMTcyNTgxMzE1MTQ3NSAuZXJyb3ItaWNvbntmaWxsOiM1NTIyMjI7fSNnZU1lcm1haWRPdXRwdXQtMTcyNTgxMzE1MTQ3NSAuZXJyb3ItdGV4dHtmaWxsOiM1NTIyMjI7c3Ryb2tlOiM1NTIyMjI7fSNnZU1lcm1haWRPdXRwdXQtMTcyNTgxMzE1MTQ3NSAuZWRnZS10aGlja25lc3Mtbm9ybWFse3N0cm9rZS13aWR0aDoycHg7fSNnZU1lcm1haWRPdXRwdXQtMTcyNTgxMzE1MTQ3NSAuZWRnZS10aGlja25lc3MtdGhpY2t7c3Ryb2tlLXdpZHRoOjMuNXB4O30jZ2VNZXJtYWlkT3V0cHV0LTE3MjU4MTMxNTE0NzUgLmVkZ2UtcGF0dGVybi1zb2xpZHtzdHJva2UtZGFzaGFycmF5OjA7fSNnZU1lcm1haWRPdXRwdXQtMTcyNTgxMzE1MTQ3NSAuZWRnZS1wYXR0ZXJuLWRhc2hlZHtzdHJva2UtZGFzaGFycmF5OjM7fSNnZU1lcm1haWRPdXRwdXQtMTcyNTgxMzE1MTQ3NSAuZWRnZS1wYXR0ZXJuLWRvdHRlZHtzdHJva2UtZGFzaGFycmF5OjI7fSNnZU1lcm1haWRPdXRwdXQtMTcyNTgxMzE1MTQ3NSAubWFya2Vye2ZpbGw6IzY2NjtzdHJva2U6IzY2Njt9I2dlTWVybWFpZE91dHB1dC0xNzI1ODEzMTUxNDc1IC5tYXJrZXIuY3Jvc3N7c3Ryb2tlOiM2NjY7fSNnZU1lcm1haWRPdXRwdXQtMTcyNTgxMzE1MTQ3NSBzdmd7Zm9udC1mYW1pbHk6InRyZWJ1Y2hldCBtcyIsdmVyZGFuYSxhcmlhbCxzYW5zLXNlcmlmO2ZvbnQtc2l6ZToxNnB4O30jZ2VNZXJtYWlkT3V0cHV0LTE3MjU4MTMxNTE0NzUgLmxhYmVse2ZvbnQtZmFtaWx5OiJ0cmVidWNoZXQgbXMiLHZlcmRhbmEsYXJpYWwsc2Fucy1zZXJpZjtjb2xvcjojMDAwMDAwO30jZ2VNZXJtYWlkT3V0cHV0LTE3MjU4MTMxNTE0NzUgLmNsdXN0ZXItbGFiZWwgdGV4dHtmaWxsOiMzMzM7fSNnZU1lcm1haWRPdXRwdXQtMTcyNTgxMzE1MTQ3NSAuY2x1c3Rlci1sYWJlbCBzcGFue2NvbG9yOiMzMzM7fSNnZU1lcm1haWRPdXRwdXQtMTcyNTgxMzE1MTQ3NSAubGFiZWwgdGV4dCwjZ2VNZXJtYWlkT3V0cHV0LTE3MjU4MTMxNTE0NzUgc3BhbntmaWxsOiMwMDAwMDA7Y29sb3I6IzAwMDAwMDt9I2dlTWVybWFpZE91dHB1dC0xNzI1ODEzMTUxNDc1IC5ub2RlIHJlY3QsI2dlTWVybWFpZE91dHB1dC0xNzI1ODEzMTUxNDc1IC5ub2RlIGNpcmNsZSwjZ2VNZXJtYWlkT3V0cHV0LTE3MjU4MTMxNTE0NzUgLm5vZGUgZWxsaXBzZSwjZ2VNZXJtYWlkT3V0cHV0LTE3MjU4MTMxNTE0NzUgLm5vZGUgcG9seWdvbiwjZ2VNZXJtYWlkT3V0cHV0LTE3MjU4MTMxNTE0NzUgLm5vZGUgcGF0aHtmaWxsOiNlZWU7c3Ryb2tlOiM5OTk7c3Ryb2tlLXdpZHRoOjFweDt9I2dlTWVybWFpZE91dHB1dC0xNzI1ODEzMTUxNDc1IC5ub2RlIC5sYWJlbHt0ZXh0LWFsaWduOmNlbnRlcjt9I2dlTWVybWFpZE91dHB1dC0xNzI1ODEzMTUxNDc1IC5ub2RlLmNsaWNrYWJsZXtjdXJzb3I6cG9pbnRlcjt9I2dlTWVybWFpZE91dHB1dC0xNzI1ODEzMTUxNDc1IC5hcnJvd2hlYWRQYXRoe2ZpbGw6IzMzMzMzMzt9I2dlTWVybWFpZE91dHB1dC0xNzI1ODEzMTUxNDc1IC5lZGdlUGF0aCAucGF0aHtzdHJva2U6IzY2NjtzdHJva2Utd2lkdGg6Mi4wcHg7fSNnZU1lcm1haWRPdXRwdXQtMTcyNTgxMzE1MTQ3NSAuZmxvd2NoYXJ0LWxpbmt7c3Ryb2tlOiM2NjY7ZmlsbDpub25lO30jZ2VNZXJtYWlkT3V0cHV0LTE3MjU4MTMxNTE0NzUgLmVkZ2VMYWJlbHtiYWNrZ3JvdW5kLWNvbG9yOndoaXRlO3RleHQtYWxpZ246Y2VudGVyO30jZ2VNZXJtYWlkT3V0cHV0LTE3MjU4MTMxNTE0NzUgLmVkZ2VMYWJlbCByZWN0e29wYWNpdHk6MC41O2JhY2tncm91bmQtY29sb3I6d2hpdGU7ZmlsbDp3aGl0ZTt9I2dlTWVybWFpZE91dHB1dC0xNzI1ODEzMTUxNDc1IC5jbHVzdGVyIHJlY3R7ZmlsbDpoc2woMCwgMCUsIDk4LjkyMTU2ODYyNzUlKTtzdHJva2U6IzcwNzA3MDtzdHJva2Utd2lkdGg6MXB4O30jZ2VNZXJtYWlkT3V0cHV0LTE3MjU4MTMxNTE0NzUgLmNsdXN0ZXIgdGV4dHtmaWxsOiMzMzM7fSNnZU1lcm1haWRPdXRwdXQtMTcyNTgxMzE1MTQ3NSAuY2x1c3RlciBzcGFue2NvbG9yOiMzMzM7fSNnZU1lcm1haWRPdXRwdXQtMTcyNTgxMzE1MTQ3NSBkaXYubWVybWFpZFRvb2x0aXB7cG9zaXRpb246YWJzb2x1dGU7dGV4dC1hbGlnbjpjZW50ZXI7bWF4LXdpZHRoOjIwMHB4O3BhZGRpbmc6MnB4O2ZvbnQtZmFtaWx5OiJ0cmVidWNoZXQgbXMiLHZlcmRhbmEsYXJpYWwsc2Fucy1zZXJpZjtmb250LXNpemU6MTJweDtiYWNrZ3JvdW5kOmhzbCgtMTYwLCAwJSwgOTMuMzMzMzMzMzMzMyUpO2JvcmRlcjoxcHggc29saWQgIzcwNzA3MDtib3JkZXItcmFkaXVzOjJweDtwb2ludGVyLWV2ZW50czpub25lO3otaW5kZXg6MTAwO30jZ2VNZXJtYWlkT3V0cHV0LTE3MjU4MTMxNTE0NzUgOnJvb3R7LS1tZXJtYWlkLWZvbnQtZmFtaWx5OiJ0cmVidWNoZXQgbXMiLHZlcmRhbmEsYXJpYWwsc2Fucy1zZXJpZjt9PC9zdHlsZT48ZyB0cmFuc2Zvcm09InRyYW5zbGF0ZSgwLCAwKSI+PGcgY2xhc3M9Im91dHB1dCI+PGcgY2xhc3M9ImNsdXN0ZXJzIj48L2c+PGcgY2xhc3M9ImVkZ2VQYXRocyI+PGcgc3R5bGU9Im9wYWNpdHk6IDE7IiBpZD0iTC1Vc2VyLUNsaWVudCIgY2xhc3M9ImVkZ2VQYXRoIExTLVVzZXIgTEUtQ2xpZW50Ij48cGF0aCBzdHlsZT0iZmlsbDpub25lIiBtYXJrZXItZW5kPSJ1cmwoI2Fycm93aGVhZDY1KSIgZD0iTTQ3My44NzEwOTM3NSw0N0w0NzMuODcxMDkzNzUsNTIuNzVDNDczLjg3MTA5Mzc1LDU4LjUsNDczLjg3MTA5Mzc1LDcwLDQ3My44NzEwOTM3NSw4MS41QzQ3My44NzEwOTM3NSw5Myw0NzMuODcxMDkzNzUsMTA0LjUsNDczLjg3MTA5Mzc1LDExMC4yNUw0NzMuODcxMDkzNzUsMTE2IiBjbGFzcz0icGF0aCI+PC9wYXRoPjxkZWZzPjxtYXJrZXIgb3JpZW50PSJhdXRvIiBtYXJrZXJIZWlnaHQ9IjYiIG1hcmtlcldpZHRoPSI4IiBtYXJrZXJVbml0cz0ic3Ryb2tlV2lkdGgiIHJlZlk9IjUiIHJlZlg9IjkiIHZpZXdCb3g9IjAgMCAxMCAxMCIgaWQ9ImFycm93aGVhZDY1Ij48cGF0aCBzdHlsZT0ic3Ryb2tlLXdpZHRoOiAxOyBzdHJva2UtZGFzaGFycmF5OiAxLCAwOyIgY2xhc3M9ImFycm93aGVhZFBhdGgiIGQ9Ik0gMCAwIEwgMTAgNSBMIDAgMTAgeiI+PC9wYXRoPjwvbWFya2VyPjwvZGVmcz48L2c+PGcgc3R5bGU9Im9wYWNpdHk6IDE7IiBpZD0iTC1DbGllbnQtQVBJR2F0ZXdheSIgY2xhc3M9ImVkZ2VQYXRoIExTLUNsaWVudCBMRS1BUElHYXRld2F5Ij48cGF0aCBzdHlsZT0iZmlsbDpub25lIiBtYXJrZXItZW5kPSJ1cmwoI2Fycm93aGVhZDY2KSIgZD0iTTQ3My44NzEwOTM3NSwxNTVMNDczLjg3MTA5Mzc1LDE2MC43NUM0NzMuODcxMDkzNzUsMTY2LjUsNDczLjg3MTA5Mzc1LDE3OCw0NzMuOTU0NDI3MDgzMzMzMywxODkuNTgzMzMzMzMzMzMzMzRDNDc0LjAzNzc2MDQxNjY2NjcsMjAxLjE2NjY2NjY2NjY2NjY2LDQ3NC4yMDQ0MjcwODMzMzMzLDIxMi44MzMzMzMzMzMzMzMzNCw0NzQuMjg3NzYwNDE2NjY2NywyMTguNjY2NjY2NjY2NjY2NjZMNDc0LjM3MTA5Mzc1LDIyNC41IiBjbGFzcz0icGF0aCI+PC9wYXRoPjxkZWZzPjxtYXJrZXIgb3JpZW50PSJhdXRvIiBtYXJrZXJIZWlnaHQ9IjYiIG1hcmtlcldpZHRoPSI4IiBtYXJrZXJVbml0cz0ic3Ryb2tlV2lkdGgiIHJlZlk9IjUiIHJlZlg9IjkiIHZpZXdCb3g9IjAgMCAxMCAxMCIgaWQ9ImFycm93aGVhZDY2Ij48cGF0aCBzdHlsZT0ic3Ryb2tlLXdpZHRoOiAxOyBzdHJva2UtZGFzaGFycmF5OiAxLCAwOyIgY2xhc3M9ImFycm93aGVhZFBhdGgiIGQ9Ik0gMCAwIEwgMTAgNSBMIDAgMTAgeiI+PC9wYXRoPjwvbWFya2VyPjwvZGVmcz48L2c+PGcgc3R5bGU9Im9wYWNpdHk6IDE7IiBpZD0iTC1BUElHYXRld2F5LUxhbWJkYUZ1bmN0aW9uIiBjbGFzcz0iZWRnZVBhdGggTFMtQVBJR2F0ZXdheSBMRS1MYW1iZGFGdW5jdGlvbiI+PHBhdGggc3R5bGU9ImZpbGw6bm9uZSIgbWFya2VyLWVuZD0idXJsKCNhcnJvd2hlYWQ2NykiIGQ9Ik00MTguMTMxNTY0NjcwMTM4OSwyNjMuNUw0MDEuNDY0NzgwNDU0MjgyNCwyNjkuMTY2NjY2NjY2NjY2N0MzODQuNzk3OTk2MjM4NDI1OSwyNzQuODMzMzMzMzMzMzMzMywzNTEuNDY0NDI3ODA2NzEzLDI4Ni4xNjY2NjY2NjY2NjY3LDMzNC44ODA5NzY5MjQxODk4NCwyOTcuNjY2NjY2NjY2NjY2N0MzMTguMjk3NTI2MDQxNjY2NywzMDkuMTY2NjY2NjY2NjY2NywzMTguNDY0MTkyNzA4MzMzMywzMjAuODMzMzMzMzMzMzMzMywzMTguNTQ3NTI2MDQxNjY2NywzMjYuNjY2NjY2NjY2NjY2N0wzMTguNjMwODU5Mzc1LDMzMi41IiBjbGFzcz0icGF0aCI+PC9wYXRoPjxkZWZzPjxtYXJrZXIgb3JpZW50PSJhdXRvIiBtYXJrZXJIZWlnaHQ9IjYiIG1hcmtlcldpZHRoPSI4IiBtYXJrZXJVbml0cz0ic3Ryb2tlV2lkdGgiIHJlZlk9IjUiIHJlZlg9IjkiIHZpZXdCb3g9IjAgMCAxMCAxMCIgaWQ9ImFycm93aGVhZDY3Ij48cGF0aCBzdHlsZT0ic3Ryb2tlLXdpZHRoOiAxOyBzdHJva2UtZGFzaGFycmF5OiAxLCAwOyIgY2xhc3M9ImFycm93aGVhZFBhdGgiIGQ9Ik0gMCAwIEwgMTAgNSBMIDAgMTAgeiI+PC9wYXRoPjwvbWFya2VyPjwvZGVmcz48L2c+PGcgc3R5bGU9Im9wYWNpdHk6IDE7IiBpZD0iTC1MYW1iZGFGdW5jdGlvbi1EeW5hbW9EQiIgY2xhc3M9ImVkZ2VQYXRoIExTLUxhbWJkYUZ1bmN0aW9uIExFLUR5bmFtb0RCIj48cGF0aCBzdHlsZT0iZmlsbDpub25lIiBtYXJrZXItZW5kPSJ1cmwoI2Fycm93aGVhZDY4KSIgZD0iTTI1Ny40NDI5Nzk2MDA2OTQ0NiwzNzEuNUwyMzkuMzE3MDY2MzMzOTEyMDQsMzc3LjE2NjY2NjY2NjY2NjdDMjIxLjE5MTE1MzA2NzEyOTY1LDM4Mi44MzMzMzMzMzMzMzMzLDE4NC45MzkzMjY1MzM1NjQ4LDM5NC4xNjY2NjY2NjY2NjY3LDE2Ni44OTY3NDY2MDAxMTU3Myw0MDUuNjY2NjY2NjY2NjY2N0MxNDguODU0MTY2NjY2NjY2NjYsNDE3LjE2NjY2NjY2NjY2NjcsMTQ5LjAyMDgzMzMzMzMzMzM0LDQyOC44MzMzMzMzMzMzMzMzLDE0OS4xMDQxNjY2NjY2NjY2Niw0MzQuNjY2NjY2NjY2NjY2N0wxNDkuMTg3NSw0NDAuNSIgY2xhc3M9InBhdGgiPjwvcGF0aD48ZGVmcz48bWFya2VyIG9yaWVudD0iYXV0byIgbWFya2VySGVpZ2h0PSI2IiBtYXJrZXJXaWR0aD0iOCIgbWFya2VyVW5pdHM9InN0cm9rZVdpZHRoIiByZWZZPSI1IiByZWZYPSI5IiB2aWV3Qm94PSIwIDAgMTAgMTAiIGlkPSJhcnJvd2hlYWQ2OCI+PHBhdGggc3R5bGU9InN0cm9rZS13aWR0aDogMTsgc3Ryb2tlLWRhc2hhcnJheTogMSwgMDsiIGNsYXNzPSJhcnJvd2hlYWRQYXRoIiBkPSJNIDAgMCBMIDEwIDUgTCAwIDEwIHoiPjwvcGF0aD48L21hcmtlcj48L2RlZnM+PC9nPjxnIHN0eWxlPSJvcGFjaXR5OiAxOyIgaWQ9IkwtTGFtYmRhRnVuY3Rpb24tQ2xvdWRXYXRjaCIgY2xhc3M9ImVkZ2VQYXRoIExTLUxhbWJkYUZ1bmN0aW9uIExFLUNsb3VkV2F0Y2giPjxwYXRoIHN0eWxlPSJmaWxsOm5vbmUiIG1hcmtlci1lbmQ9InVybCgjYXJyb3doZWFkNjkpIiBkPSJNMzc5LjgxODczOTE0OTMwNTU0LDM3MS41TDM5Ny43Nzc5ODU3NDk0MjEzLDM3Ny4xNjY2NjY2NjY2NjY3QzQxNS43MzcyMzIzNDk1MzcsMzgyLjgzMzMzMzMzMzMzMzMsNDUxLjY1NTcyNTU0OTc2ODUzLDM5NC4xNjY2NjY2NjY2NjY3LDQ2OS42OTgzMDU0ODMyMTc2LDQwNS42NjY2NjY2NjY2NjY3QzQ4Ny43NDA4ODU0MTY2NjY3LDQxNy4xNjY2NjY2NjY2NjY3LDQ4Ny45MDc1NTIwODMzMzMzLDQyOC44MzMzMzMzMzMzMzMzLDQ4Ny45OTA4ODU0MTY2NjY3LDQzNC42NjY2NjY2NjY2NjY3TDQ4OC4wNzQyMTg3NSw0NDAuNSIgY2xhc3M9InBhdGgiPjwvcGF0aD48ZGVmcz48bWFya2VyIG9yaWVudD0iYXV0byIgbWFya2VySGVpZ2h0PSI2IiBtYXJrZXJXaWR0aD0iOCIgbWFya2VyVW5pdHM9InN0cm9rZVdpZHRoIiByZWZZPSI1IiByZWZYPSI5IiB2aWV3Qm94PSIwIDAgMTAgMTAiIGlkPSJhcnJvd2hlYWQ2OSI+PHBhdGggc3R5bGU9InN0cm9rZS13aWR0aDogMTsgc3Ryb2tlLWRhc2hhcnJheTogMSwgMDsiIGNsYXNzPSJhcnJvd2hlYWRQYXRoIiBkPSJNIDAgMCBMIDEwIDUgTCAwIDEwIHoiPjwvcGF0aD48L21hcmtlcj48L2RlZnM+PC9nPjxnIHN0eWxlPSJvcGFjaXR5OiAxOyIgaWQ9IkwtQVBJR2F0ZXdheS1Db2duaXRvIiBjbGFzcz0iZWRnZVBhdGggTFMtQVBJR2F0ZXdheSBMRS1Db2duaXRvIj48cGF0aCBzdHlsZT0iZmlsbDpub25lIiBtYXJrZXItZW5kPSJ1cmwoI2Fycm93aGVhZDcwKSIgZD0iTTUzMC42MTA2MjI4Mjk4NjExLDI2My41TDU0Ny4xMTA3NDAzNzkwNTEsMjY5LjE2NjY2NjY2NjY2NjdDNTYzLjYxMDg1NzkyODI0MDgsMjc0LjgzMzMzMzMzMzMzMzMsNTk2LjYxMTA5MzAyNjYyMDMsMjg2LjE2NjY2NjY2NjY2NjcsNjEzLjE5NDU0MzkwOTE0MzYsMjk3LjY2NjY2NjY2NjY2NjdDNjI5Ljc3Nzk5NDc5MTY2NjYsMzA5LjE2NjY2NjY2NjY2NjcsNjI5Ljk0NDY2MTQ1ODMzMzQsMzIwLjgzMzMzMzMzMzMzMzMsNjMwLjAyNzk5NDc5MTY2NjYsMzI2LjY2NjY2NjY2NjY2NjdMNjMwLjExMTMyODEyNSwzMzIuNSIgY2xhc3M9InBhdGgiPjwvcGF0aD48ZGVmcz48bWFya2VyIG9yaWVudD0iYXV0byIgbWFya2VySGVpZ2h0PSI2IiBtYXJrZXJXaWR0aD0iOCIgbWFya2VyVW5pdHM9InN0cm9rZVdpZHRoIiByZWZZPSI1IiByZWZYPSI5IiB2aWV3Qm94PSIwIDAgMTAgMTAiIGlkPSJhcnJvd2hlYWQ3MCI+PHBhdGggc3R5bGU9InN0cm9rZS13aWR0aDogMTsgc3Ryb2tlLWRhc2hhcnJheTogMSwgMDsiIGNsYXNzPSJhcnJvd2hlYWRQYXRoIiBkPSJNIDAgMCBMIDEwIDUgTCAwIDEwIHoiPjwvcGF0aD48L21hcmtlcj48L2RlZnM+PC9nPjwvZz48ZyBjbGFzcz0iZWRnZUxhYmVscyI+PGcgc3R5bGU9Im9wYWNpdHk6IDE7IiB0cmFuc2Zvcm09InRyYW5zbGF0ZSg0NzMuODcxMDkzNzUsODEuNSkiIGNsYXNzPSJlZGdlTGFiZWwiPjxnIGNsYXNzPSJsYWJlbCIgdHJhbnNmb3JtPSJ0cmFuc2xhdGUoLTQ0LjY5MTQwNjI1LC05LjUpIj48cmVjdCBoZWlnaHQ9IjE5IiB3aWR0aD0iODkuMzgyODEyNSIgcnk9IjAiIHJ4PSIwIj48L3JlY3Q+PHRleHQ+PHRzcGFuIHg9IjEiIGR5PSIxZW0iIHhtbDpzcGFjZT0icHJlc2VydmUiPkFjY2Vzc2VzIHZpYTwvdHNwYW4+PC90ZXh0PjwvZz48L2c+PGcgc3R5bGU9Im9wYWNpdHk6IDE7IiB0cmFuc2Zvcm09InRyYW5zbGF0ZSg0NzMuODcxMDkzNzUsMTg5LjUpIiBjbGFzcz0iZWRnZUxhYmVsIj48ZyBjbGFzcz0ibGFiZWwiIHRyYW5zZm9ybT0idHJhbnNsYXRlKC00Mi45NDE0MDYyNSwtOS41KSI+PHJlY3QgaGVpZ2h0PSIxOSIgd2lkdGg9Ijg1Ljg4MjgxMjUiIHJ5PSIwIiByeD0iMCI+PC9yZWN0Pjx0ZXh0Pjx0c3BhbiB4PSIxIiBkeT0iMWVtIiB4bWw6c3BhY2U9InByZXNlcnZlIj5BUEkgUmVxdWVzdDwvdHNwYW4+PC90ZXh0PjwvZz48L2c+PGcgc3R5bGU9Im9wYWNpdHk6IDE7IiB0cmFuc2Zvcm09InRyYW5zbGF0ZSgzMTguMTMwODU5Mzc1LDI5Ny41KSIgY2xhc3M9ImVkZ2VMYWJlbCI+PGcgY2xhc3M9ImxhYmVsIiB0cmFuc2Zvcm09InRyYW5zbGF0ZSgtMjguNjYwMTU2MjUsLTkuNSkiPjxyZWN0IGhlaWdodD0iMTkiIHdpZHRoPSI1Ny4zMjAzMTI1IiByeT0iMCIgcng9IjAiPjwvcmVjdD48dGV4dD48dHNwYW4geD0iMSIgZHk9IjFlbSIgeG1sOnNwYWNlPSJwcmVzZXJ2ZSI+VHJpZ2dlcnM8L3RzcGFuPjwvdGV4dD48L2c+PC9nPjxnIHN0eWxlPSJvcGFjaXR5OiAxOyIgdHJhbnNmb3JtPSJ0cmFuc2xhdGUoMTQ4LjY4NzUsNDA1LjUpIiBjbGFzcz0iZWRnZUxhYmVsIj48ZyBjbGFzcz0ibGFiZWwiIHRyYW5zZm9ybT0idHJhbnNsYXRlKC00Ny42Mjg5MDYyNSwtOS41KSI+PHJlY3QgaGVpZ2h0PSIxOSIgd2lkdGg9Ijk1LjI1NzgxMjUiIHJ5PSIwIiByeD0iMCI+PC9yZWN0Pjx0ZXh0Pjx0c3BhbiB4PSIxIiBkeT0iMWVtIiB4bWw6c3BhY2U9InByZXNlcnZlIj5SZWFkcy9Xcml0ZXM8L3RzcGFuPjwvdGV4dD48L2c+PC9nPjxnIHN0eWxlPSJvcGFjaXR5OiAxOyIgdHJhbnNmb3JtPSJ0cmFuc2xhdGUoNDg3LjU3NDIxODc1LDQwNS41KSIgY2xhc3M9ImVkZ2VMYWJlbCI+PGcgY2xhc3M9ImxhYmVsIiB0cmFuc2Zvcm09InRyYW5zbGF0ZSgtMTUuODU5Mzc1LC05LjUpIj48cmVjdCBoZWlnaHQ9IjE5IiB3aWR0aD0iMzEuNzE4NzUiIHJ5PSIwIiByeD0iMCI+PC9yZWN0Pjx0ZXh0Pjx0c3BhbiB4PSIxIiBkeT0iMWVtIiB4bWw6c3BhY2U9InByZXNlcnZlIj5Mb2dzPC90c3Bhbj48L3RleHQ+PC9nPjwvZz48ZyBzdHlsZT0ib3BhY2l0eTogMTsiIHRyYW5zZm9ybT0idHJhbnNsYXRlKDYyOS42MTEzMjgxMjUsMjk3LjUpIiBjbGFzcz0iZWRnZUxhYmVsIj48ZyBjbGFzcz0ibGFiZWwiIHRyYW5zZm9ybT0idHJhbnNsYXRlKC01My43MzA0Njg3NSwtOS41KSI+PHJlY3QgaGVpZ2h0PSIxOSIgd2lkdGg9IjEwNy40NjA5Mzc1IiByeT0iMCIgcng9IjAiPjwvcmVjdD48dGV4dD48dHNwYW4geD0iMSIgZHk9IjFlbSIgeG1sOnNwYWNlPSJwcmVzZXJ2ZSI+QXV0aGVudGljYXRpb248L3RzcGFuPjwvdGV4dD48L2c+PC9nPjwvZz48ZyBjbGFzcz0ibm9kZXMiPjxnIHN0eWxlPSJvcGFjaXR5OiAxOyIgdHJhbnNmb3JtPSJ0cmFuc2xhdGUoNDczLjg3MTA5Mzc1LDI3LjUpIiBpZD0iZmxvd2NoYXJ0LVVzZXItNTciIGNsYXNzPSJub2RlIGRlZmF1bHQiPjxyZWN0IHN0eWxlPSJmaWxsOiNmOWY7c3Ryb2tlOiMzMzM7c3Ryb2tlLXdpZHRoOjJweDsiIGNsYXNzPSJsYWJlbC1jb250YWluZXIiIGhlaWdodD0iMzkiIHdpZHRoPSI1Mi41NzgxMjUiIHk9Ii0xOS41IiB4PSItMjYuMjg5MDYyNSIgcnk9IjAiIHJ4PSIwIj48L3JlY3Q+PGcgdHJhbnNmb3JtPSJ0cmFuc2xhdGUoMCwwKSIgY2xhc3M9ImxhYmVsIj48ZyB0cmFuc2Zvcm09InRyYW5zbGF0ZSgtMTYuMjg5MDYyNSwtOS41KSI+PHRleHQgc3R5bGU9IiI+PHRzcGFuIHg9IjEiIGR5PSIxZW0iIHhtbDpzcGFjZT0icHJlc2VydmUiPlVzZXI8L3RzcGFuPjwvdGV4dD48L2c+PC9nPjwvZz48ZyBzdHlsZT0ib3BhY2l0eTogMTsiIHRyYW5zZm9ybT0idHJhbnNsYXRlKDQ3My44NzEwOTM3NSwxMzUuNSkiIGlkPSJmbG93Y2hhcnQtQ2xpZW50LTU4IiBjbGFzcz0ibm9kZSBkZWZhdWx0Ij48cmVjdCBzdHlsZT0iZmlsbDojZmY5O3N0cm9rZTojMzMzO3N0cm9rZS13aWR0aDoycHg7IiBjbGFzcz0ibGFiZWwtY29udGFpbmVyIiBoZWlnaHQ9IjM5IiB3aWR0aD0iMjYzLjk4NDM3NSIgeT0iLTE5LjUiIHg9Ii0xMzEuOTkyMTg3NSIgcnk9IjAiIHJ4PSIwIj48L3JlY3Q+PGcgdHJhbnNmb3JtPSJ0cmFuc2xhdGUoMCwwKSIgY2xhc3M9ImxhYmVsIj48ZyB0cmFuc2Zvcm09InRyYW5zbGF0ZSgtMTIxLjk5MjE4NzUsLTkuNSkiPjx0ZXh0IHN0eWxlPSIiPjx0c3BhbiB4PSIxIiBkeT0iMWVtIiB4bWw6c3BhY2U9InByZXNlcnZlIj5mYTpmYS1tb2JpbGUgV2ViIG9yIE1vYmlsZSBDbGllbnQ8L3RzcGFuPjwvdGV4dD48L2c+PC9nPjwvZz48ZyBzdHlsZT0ib3BhY2l0eTogMTsiIHRyYW5zZm9ybT0idHJhbnNsYXRlKDQ3My44NzEwOTM3NSwyNDMuNSkiIGlkPSJmbG93Y2hhcnQtQVBJR2F0ZXdheS02MCIgY2xhc3M9Im5vZGUgZGVmYXVsdCI+PHBvbHlnb24gc3R5bGU9ImZpbGw6IzlmZjtzdHJva2U6IzMzMztzdHJva2Utd2lkdGg6MnB4OyIgY2xhc3M9ImxhYmVsLWNvbnRhaW5lciIgdHJhbnNmb3JtPSJ0cmFuc2xhdGUoLTExMy44NzUsMTkuNSkiIHBvaW50cz0iMCwwIDIyNy43NSwwIDIyNy43NSwtMzkgMCwtMzkgMCwwIC04LDAgMjM1Ljc1LDAgMjM1Ljc1LC0zOSAtOCwtMzkgLTgsMCI+PC9wb2x5Z29uPjxnIHRyYW5zZm9ybT0idHJhbnNsYXRlKDAsMCkiIGNsYXNzPSJsYWJlbCI+PGcgdHJhbnNmb3JtPSJ0cmFuc2xhdGUoLTEwMy44NzUsLTkuNSkiPjx0ZXh0IHN0eWxlPSIiPjx0c3BhbiB4PSIxIiBkeT0iMWVtIiB4bWw6c3BhY2U9InByZXNlcnZlIj5mYTpmYS1jbG91ZCBBV1MgQVBJIEdhdGV3YXk8L3RzcGFuPjwvdGV4dD48L2c+PC9nPjwvZz48ZyBzdHlsZT0ib3BhY2l0eTogMTsiIHRyYW5zZm9ybT0idHJhbnNsYXRlKDMxOC4xMzA4NTkzNzUsMzUxLjUpIiBpZD0iZmxvd2NoYXJ0LUxhbWJkYUZ1bmN0aW9uLTYyIiBjbGFzcz0ibm9kZSBkZWZhdWx0Ij48cG9seWdvbiBzdHlsZT0iZmlsbDojOWY5O3N0cm9rZTojMzMzO3N0cm9rZS13aWR0aDoycHg7IiBjbGFzcz0ibGFiZWwtY29udGFpbmVyIiB0cmFuc2Zvcm09InRyYW5zbGF0ZSgtMTM3LjE0NDUzMTI1LDE5LjUpIiBwb2ludHM9IjAsMCAyNzQuMjg5MDYyNSwwIDI3NC4yODkwNjI1LC0zOSAwLC0zOSAwLDAgLTgsMCAyODIuMjg5MDYyNSwwIDI4Mi4yODkwNjI1LC0zOSAtOCwtMzkgLTgsMCI+PC9wb2x5Z29uPjxnIHRyYW5zZm9ybT0idHJhbnNsYXRlKDAsMCkiIGNsYXNzPSJsYWJlbCI+PGcgdHJhbnNmb3JtPSJ0cmFuc2xhdGUoLTEyNy4xNDQ1MzEyNSwtOS41KSI+PHRleHQgc3R5bGU9IiI+PHRzcGFuIHg9IjEiIGR5PSIxZW0iIHhtbDpzcGFjZT0icHJlc2VydmUiPmZhOmZhLWxhbWJkYSBBV1MgTGFtYmRhIEZ1bmN0aW9uPC90c3Bhbj48L3RleHQ+PC9nPjwvZz48L2c+PGcgc3R5bGU9Im9wYWNpdHk6IDE7IiB0cmFuc2Zvcm09InRyYW5zbGF0ZSgxNDguNjg3NSw0NTkuNSkiIGlkPSJmbG93Y2hhcnQtRHluYW1vREItNjQiIGNsYXNzPSJub2RlIGRlZmF1bHQiPjxwb2x5Z29uIHN0eWxlPSJmaWxsOiNmOTk7c3Ryb2tlOiMzMzM7c3Ryb2tlLXdpZHRoOjJweDsiIGNsYXNzPSJsYWJlbC1jb250YWluZXIiIHRyYW5zZm9ybT0idHJhbnNsYXRlKC0xMzIuNjg3NSwxOS41KSIgcG9pbnRzPSIwLDAgMjY1LjM3NSwwIDI2NS4zNzUsLTM5IDAsLTM5IDAsMCAtOCwwIDI3My4zNzUsMCAyNzMuMzc1LC0zOSAtOCwtMzkgLTgsMCI+PC9wb2x5Z29uPjxnIHRyYW5zZm9ybT0idHJhbnNsYXRlKDAsMCkiIGNsYXNzPSJsYWJlbCI+PGcgdHJhbnNmb3JtPSJ0cmFuc2xhdGUoLTEyMi42ODc1LC05LjUpIj48dGV4dCBzdHlsZT0iIj48dHNwYW4geD0iMSIgZHk9IjFlbSIgeG1sOnNwYWNlPSJwcmVzZXJ2ZSI+ZmE6ZmEtZGF0YWJhc2UgQW1hem9uIER5bmFtb0RCPC90c3Bhbj48L3RleHQ+PC9nPjwvZz48L2c+PGcgc3R5bGU9Im9wYWNpdHk6IDE7IiB0cmFuc2Zvcm09InRyYW5zbGF0ZSg0ODcuNTc0MjE4NzUsNDU5LjUpIiBpZD0iZmxvd2NoYXJ0LUNsb3VkV2F0Y2gtNjYiIGNsYXNzPSJub2RlIGRlZmF1bHQiPjxwb2x5Z29uIHN0eWxlPSJmaWxsOiM5OWY7c3Ryb2tlOiMzMzM7c3Ryb2tlLXdpZHRoOjJweDsiIGNsYXNzPSJsYWJlbC1jb250YWluZXIiIHRyYW5zZm9ybT0idHJhbnNsYXRlKC0xNDAuMTk5MjE4NzUsMTkuNSkiIHBvaW50cz0iMCwwIDI4MC4zOTg0Mzc1LDAgMjgwLjM5ODQzNzUsLTM5IDAsLTM5IDAsMCAtOCwwIDI4OC4zOTg0Mzc1LDAgMjg4LjM5ODQzNzUsLTM5IC04LC0zOSAtOCwwIj48L3BvbHlnb24+PGcgdHJhbnNmb3JtPSJ0cmFuc2xhdGUoMCwwKSIgY2xhc3M9ImxhYmVsIj48ZyB0cmFuc2Zvcm09InRyYW5zbGF0ZSgtMTMwLjE5OTIxODc1LC05LjUpIj48dGV4dCBzdHlsZT0iIj48dHNwYW4geD0iMSIgZHk9IjFlbSIgeG1sOnNwYWNlPSJwcmVzZXJ2ZSI+ZmE6ZmEtY2hhcnQtbGluZSBBbWF6b24gQ2xvdWRXYXRjaDwvdHNwYW4+PC90ZXh0PjwvZz48L2c+PC9nPjxnIHN0eWxlPSJvcGFjaXR5OiAxOyIgdHJhbnNmb3JtPSJ0cmFuc2xhdGUoNjI5LjYxMTMyODEyNSwzNTEuNSkiIGlkPSJmbG93Y2hhcnQtQ29nbml0by02OCIgY2xhc3M9Im5vZGUgZGVmYXVsdCI+PHBvbHlnb24gc3R5bGU9ImZpbGw6I2NmYztzdHJva2U6IzMzMztzdHJva2Utd2lkdGg6MnB4OyIgY2xhc3M9ImxhYmVsLWNvbnRhaW5lciIgdHJhbnNmb3JtPSJ0cmFuc2xhdGUoLTEwOC4zMzU5Mzc1LDE5LjUpIiBwb2ludHM9IjAsMCAyMTYuNjcxODc1LDAgMjE2LjY3MTg3NSwtMzkgMCwtMzkgMCwwIC04LDAgMjI0LjY3MTg3NSwwIDIyNC42NzE4NzUsLTM5IC04LC0zOSAtOCwwIj48L3BvbHlnb24+PGcgdHJhbnNmb3JtPSJ0cmFuc2xhdGUoMCwwKSIgY2xhc3M9ImxhYmVsIj48ZyB0cmFuc2Zvcm09InRyYW5zbGF0ZSgtOTguMzM1OTM3NSwtOS41KSI+PHRleHQgc3R5bGU9IiI+PHRzcGFuIHg9IjEiIGR5PSIxZW0iIHhtbDpzcGFjZT0icHJlc2VydmUiPmZhOmZhLXVzZXJzIEFtYXpvbiBDb2duaXRvPC90c3Bhbj48L3RleHQ+PC9nPjwvZz48L2c+PC9nPjwvZz48L2c+PC9zdmc+;" vertex="1" parent="1">
                        <mxGeometry x="-90" y="150" width="100" height="487" as="geometry"/>
                    </mxCell>
                </UserObject>
                <UserObject label="" mermaidData="{&#10;  &quot;data&quot;: &quot;graph TD\n    User[User] --&gt;|Accesses via| Client[Web or Mobile Client]\n    Client --&gt;|API Request| APIGateway[API Gateway]\n    APIGateway --&gt;|Triggers| LambdaFunction[AWS Lambda Function]\n    LambdaFunction --&gt;|Reads/Writes| DynamoDB[DynamoDB]\n    LambdaFunction --&gt;|Logs| CloudWatch[CloudWatch Logs]\n    APIGateway --&gt;|Authentication| Cognito[Amazon Cognito]\n    \n    style User fill:#f9f,stroke:#333,stroke-width:2px\n    style Client fill:#ff9,stroke:#333,stroke-width:2px\n    style APIGateway fill:#9ff,stroke:#333,stroke-width:2px\n    style LambdaFunction fill:#9f9,stroke:#333,stroke-width:2px\n    style DynamoDB fill:#f99,stroke:#333,stroke-width:2px\n    style CloudWatch fill:#99f,stroke:#333,stroke-width:2px\n    style Cognito fill:#cfc,stroke:#333,stroke-width:2px\n&quot;,&#10;  &quot;config&quot;: {&#10;    &quot;theme&quot;: &quot;neutral&quot;,&#10;    &quot;arrowMarkerAbsolute&quot;: false,&#10;    &quot;flowchart&quot;: {&#10;      &quot;htmlLabels&quot;: false&#10;    },&#10;    &quot;sequence&quot;: {&#10;      &quot;diagramMarginX&quot;: 50,&#10;      &quot;diagramMarginY&quot;: 10,&#10;      &quot;actorMargin&quot;: 50,&#10;      &quot;width&quot;: 150,&#10;      &quot;height&quot;: 65,&#10;      &quot;boxMargin&quot;: 10,&#10;      &quot;boxTextMargin&quot;: 5,&#10;      &quot;noteMargin&quot;: 10,&#10;      &quot;messageMargin&quot;: 35,&#10;      &quot;mirrorActors&quot;: true,&#10;      &quot;bottomMarginAdj&quot;: 1,&#10;      &quot;useMaxWidth&quot;: true,&#10;      &quot;rightAngles&quot;: false,&#10;      &quot;showSequenceNumbers&quot;: false&#10;    },&#10;    &quot;gantt&quot;: {&#10;      &quot;titleTopMargin&quot;: 25,&#10;      &quot;barHeight&quot;: 20,&#10;      &quot;barGap&quot;: 4,&#10;      &quot;topPadding&quot;: 50,&#10;      &quot;leftPadding&quot;: 75,&#10;      &quot;gridLineStartPadding&quot;: 35,&#10;      &quot;fontSize&quot;: 11,&#10;      &quot;fontFamily&quot;: &quot;\&quot;Open-Sans\&quot;, \&quot;sans-serif\&quot;&quot;,&#10;      &quot;numberSectionStyles&quot;: 4,&#10;      &quot;axisFormat&quot;: &quot;%Y-%m-%d&quot;&#10;    }&#10;  }&#10;}" id="DZxN7l-nGZsO6GZUW6Sb-2">
                    <mxCell style="shape=image;noLabel=1;verticalAlign=top;imageAspect=1;image=data:image/svg+xml,PHN2ZyB2aWV3Qm94PSIwIDAgNDIzLjg2NTIzNDM3NSA0ODciIHN0eWxlPSJtYXgtd2lkdGg6IDQyMy44NjUyMzQzNzVweDsiIGhlaWdodD0iNDg3IiBhcmlhLWxhYmVsbGVkYnk9ImNoYXJ0LXRpdGxlLWdlTWVybWFpZE91dHB1dC0xNzI1ODEzMTgxMDU1IGNoYXJ0LWRlc2MtZ2VNZXJtYWlkT3V0cHV0LTE3MjU4MTMxODEwNTUiIHJvbGU9ImltZyIgeG1sbnM6eGxpbms9Imh0dHA6Ly93d3cudzMub3JnLzE5OTkveGxpbmsiIHhtbG5zPSJodHRwOi8vd3d3LnczLm9yZy8yMDAwL3N2ZyIgd2lkdGg9IjEwMCUiIGlkPSJnZU1lcm1haWRPdXRwdXQtMTcyNTgxMzE4MTA1NSI+PHRpdGxlIGlkPSJjaGFydC10aXRsZS1nZU1lcm1haWRPdXRwdXQtMTcyNTgxMzE4MTA1NSI+PC90aXRsZT48ZGVzYyBpZD0iY2hhcnQtZGVzYy1nZU1lcm1haWRPdXRwdXQtMTcyNTgxMzE4MTA1NSI+PC9kZXNjPjxzdHlsZT4jZ2VNZXJtYWlkT3V0cHV0LTE3MjU4MTMxODEwNTUge2ZvbnQtZmFtaWx5OiJ0cmVidWNoZXQgbXMiLHZlcmRhbmEsYXJpYWwsc2Fucy1zZXJpZjtmb250LXNpemU6MTZweDtmaWxsOiMwMDAwMDA7fSNnZU1lcm1haWRPdXRwdXQtMTcyNTgxMzE4MTA1NSAuZXJyb3ItaWNvbntmaWxsOiM1NTIyMjI7fSNnZU1lcm1haWRPdXRwdXQtMTcyNTgxMzE4MTA1NSAuZXJyb3ItdGV4dHtmaWxsOiM1NTIyMjI7c3Ryb2tlOiM1NTIyMjI7fSNnZU1lcm1haWRPdXRwdXQtMTcyNTgxMzE4MTA1NSAuZWRnZS10aGlja25lc3Mtbm9ybWFse3N0cm9rZS13aWR0aDoycHg7fSNnZU1lcm1haWRPdXRwdXQtMTcyNTgxMzE4MTA1NSAuZWRnZS10aGlja25lc3MtdGhpY2t7c3Ryb2tlLXdpZHRoOjMuNXB4O30jZ2VNZXJtYWlkT3V0cHV0LTE3MjU4MTMxODEwNTUgLmVkZ2UtcGF0dGVybi1zb2xpZHtzdHJva2UtZGFzaGFycmF5OjA7fSNnZU1lcm1haWRPdXRwdXQtMTcyNTgxMzE4MTA1NSAuZWRnZS1wYXR0ZXJuLWRhc2hlZHtzdHJva2UtZGFzaGFycmF5OjM7fSNnZU1lcm1haWRPdXRwdXQtMTcyNTgxMzE4MTA1NSAuZWRnZS1wYXR0ZXJuLWRvdHRlZHtzdHJva2UtZGFzaGFycmF5OjI7fSNnZU1lcm1haWRPdXRwdXQtMTcyNTgxMzE4MTA1NSAubWFya2Vye2ZpbGw6IzY2NjtzdHJva2U6IzY2Njt9I2dlTWVybWFpZE91dHB1dC0xNzI1ODEzMTgxMDU1IC5tYXJrZXIuY3Jvc3N7c3Ryb2tlOiM2NjY7fSNnZU1lcm1haWRPdXRwdXQtMTcyNTgxMzE4MTA1NSBzdmd7Zm9udC1mYW1pbHk6InRyZWJ1Y2hldCBtcyIsdmVyZGFuYSxhcmlhbCxzYW5zLXNlcmlmO2ZvbnQtc2l6ZToxNnB4O30jZ2VNZXJtYWlkT3V0cHV0LTE3MjU4MTMxODEwNTUgLmxhYmVse2ZvbnQtZmFtaWx5OiJ0cmVidWNoZXQgbXMiLHZlcmRhbmEsYXJpYWwsc2Fucy1zZXJpZjtjb2xvcjojMDAwMDAwO30jZ2VNZXJtYWlkT3V0cHV0LTE3MjU4MTMxODEwNTUgLmNsdXN0ZXItbGFiZWwgdGV4dHtmaWxsOiMzMzM7fSNnZU1lcm1haWRPdXRwdXQtMTcyNTgxMzE4MTA1NSAuY2x1c3Rlci1sYWJlbCBzcGFue2NvbG9yOiMzMzM7fSNnZU1lcm1haWRPdXRwdXQtMTcyNTgxMzE4MTA1NSAubGFiZWwgdGV4dCwjZ2VNZXJtYWlkT3V0cHV0LTE3MjU4MTMxODEwNTUgc3BhbntmaWxsOiMwMDAwMDA7Y29sb3I6IzAwMDAwMDt9I2dlTWVybWFpZE91dHB1dC0xNzI1ODEzMTgxMDU1IC5ub2RlIHJlY3QsI2dlTWVybWFpZE91dHB1dC0xNzI1ODEzMTgxMDU1IC5ub2RlIGNpcmNsZSwjZ2VNZXJtYWlkT3V0cHV0LTE3MjU4MTMxODEwNTUgLm5vZGUgZWxsaXBzZSwjZ2VNZXJtYWlkT3V0cHV0LTE3MjU4MTMxODEwNTUgLm5vZGUgcG9seWdvbiwjZ2VNZXJtYWlkT3V0cHV0LTE3MjU4MTMxODEwNTUgLm5vZGUgcGF0aHtmaWxsOiNlZWU7c3Ryb2tlOiM5OTk7c3Ryb2tlLXdpZHRoOjFweDt9I2dlTWVybWFpZE91dHB1dC0xNzI1ODEzMTgxMDU1IC5ub2RlIC5sYWJlbHt0ZXh0LWFsaWduOmNlbnRlcjt9I2dlTWVybWFpZE91dHB1dC0xNzI1ODEzMTgxMDU1IC5ub2RlLmNsaWNrYWJsZXtjdXJzb3I6cG9pbnRlcjt9I2dlTWVybWFpZE91dHB1dC0xNzI1ODEzMTgxMDU1IC5hcnJvd2hlYWRQYXRoe2ZpbGw6IzMzMzMzMzt9I2dlTWVybWFpZE91dHB1dC0xNzI1ODEzMTgxMDU1IC5lZGdlUGF0aCAucGF0aHtzdHJva2U6IzY2NjtzdHJva2Utd2lkdGg6Mi4wcHg7fSNnZU1lcm1haWRPdXRwdXQtMTcyNTgxMzE4MTA1NSAuZmxvd2NoYXJ0LWxpbmt7c3Ryb2tlOiM2NjY7ZmlsbDpub25lO30jZ2VNZXJtYWlkT3V0cHV0LTE3MjU4MTMxODEwNTUgLmVkZ2VMYWJlbHtiYWNrZ3JvdW5kLWNvbG9yOndoaXRlO3RleHQtYWxpZ246Y2VudGVyO30jZ2VNZXJtYWlkT3V0cHV0LTE3MjU4MTMxODEwNTUgLmVkZ2VMYWJlbCByZWN0e29wYWNpdHk6MC41O2JhY2tncm91bmQtY29sb3I6d2hpdGU7ZmlsbDp3aGl0ZTt9I2dlTWVybWFpZE91dHB1dC0xNzI1ODEzMTgxMDU1IC5jbHVzdGVyIHJlY3R7ZmlsbDpoc2woMCwgMCUsIDk4LjkyMTU2ODYyNzUlKTtzdHJva2U6IzcwNzA3MDtzdHJva2Utd2lkdGg6MXB4O30jZ2VNZXJtYWlkT3V0cHV0LTE3MjU4MTMxODEwNTUgLmNsdXN0ZXIgdGV4dHtmaWxsOiMzMzM7fSNnZU1lcm1haWRPdXRwdXQtMTcyNTgxMzE4MTA1NSAuY2x1c3RlciBzcGFue2NvbG9yOiMzMzM7fSNnZU1lcm1haWRPdXRwdXQtMTcyNTgxMzE4MTA1NSBkaXYubWVybWFpZFRvb2x0aXB7cG9zaXRpb246YWJzb2x1dGU7dGV4dC1hbGlnbjpjZW50ZXI7bWF4LXdpZHRoOjIwMHB4O3BhZGRpbmc6MnB4O2ZvbnQtZmFtaWx5OiJ0cmVidWNoZXQgbXMiLHZlcmRhbmEsYXJpYWwsc2Fucy1zZXJpZjtmb250LXNpemU6MTJweDtiYWNrZ3JvdW5kOmhzbCgtMTYwLCAwJSwgOTMuMzMzMzMzMzMzMyUpO2JvcmRlcjoxcHggc29saWQgIzcwNzA3MDtib3JkZXItcmFkaXVzOjJweDtwb2ludGVyLWV2ZW50czpub25lO3otaW5kZXg6MTAwO30jZ2VNZXJtYWlkT3V0cHV0LTE3MjU4MTMxODEwNTUgOnJvb3R7LS1tZXJtYWlkLWZvbnQtZmFtaWx5OiJ0cmVidWNoZXQgbXMiLHZlcmRhbmEsYXJpYWwsc2Fucy1zZXJpZjt9PC9zdHlsZT48ZyB0cmFuc2Zvcm09InRyYW5zbGF0ZSgwLCAwKSI+PGcgY2xhc3M9Im91dHB1dCI+PGcgY2xhc3M9ImNsdXN0ZXJzIj48L2c+PGcgY2xhc3M9ImVkZ2VQYXRocyI+PGcgc3R5bGU9Im9wYWNpdHk6IDE7IiBpZD0iTC1Vc2VyLUNsaWVudCIgY2xhc3M9ImVkZ2VQYXRoIExTLVVzZXIgTEUtQ2xpZW50Ij48cGF0aCBzdHlsZT0iZmlsbDpub25lIiBtYXJrZXItZW5kPSJ1cmwoI2Fycm93aGVhZDEwMCkiIGQ9Ik0yNDMuNzU3ODEyNSw0N0wyNDMuNzU3ODEyNSw1Mi43NUMyNDMuNzU3ODEyNSw1OC41LDI0My43NTc4MTI1LDcwLDI0My43NTc4MTI1LDgxLjVDMjQzLjc1NzgxMjUsOTMsMjQzLjc1NzgxMjUsMTA0LjUsMjQzLjc1NzgxMjUsMTEwLjI1TDI0My43NTc4MTI1LDExNiIgY2xhc3M9InBhdGgiPjwvcGF0aD48ZGVmcz48bWFya2VyIG9yaWVudD0iYXV0byIgbWFya2VySGVpZ2h0PSI2IiBtYXJrZXJXaWR0aD0iOCIgbWFya2VyVW5pdHM9InN0cm9rZVdpZHRoIiByZWZZPSI1IiByZWZYPSI5IiB2aWV3Qm94PSIwIDAgMTAgMTAiIGlkPSJhcnJvd2hlYWQxMDAiPjxwYXRoIHN0eWxlPSJzdHJva2Utd2lkdGg6IDE7IHN0cm9rZS1kYXNoYXJyYXk6IDEsIDA7IiBjbGFzcz0iYXJyb3doZWFkUGF0aCIgZD0iTSAwIDAgTCAxMCA1IEwgMCAxMCB6Ij48L3BhdGg+PC9tYXJrZXI+PC9kZWZzPjwvZz48ZyBzdHlsZT0ib3BhY2l0eTogMTsiIGlkPSJMLUNsaWVudC1BUElHYXRld2F5IiBjbGFzcz0iZWRnZVBhdGggTFMtQ2xpZW50IExFLUFQSUdhdGV3YXkiPjxwYXRoIHN0eWxlPSJmaWxsOm5vbmUiIG1hcmtlci1lbmQ9InVybCgjYXJyb3doZWFkMTAxKSIgZD0iTTI0My43NTc4MTI1LDE1NUwyNDMuNzU3ODEyNSwxNjAuNzVDMjQzLjc1NzgxMjUsMTY2LjUsMjQzLjc1NzgxMjUsMTc4LDI0My43NTc4MTI1LDE4OS41QzI0My43NTc4MTI1LDIwMSwyNDMuNzU3ODEyNSwyMTIuNSwyNDMuNzU3ODEyNSwyMTguMjVMMjQzLjc1NzgxMjUsMjI0IiBjbGFzcz0icGF0aCI+PC9wYXRoPjxkZWZzPjxtYXJrZXIgb3JpZW50PSJhdXRvIiBtYXJrZXJIZWlnaHQ9IjYiIG1hcmtlcldpZHRoPSI4IiBtYXJrZXJVbml0cz0ic3Ryb2tlV2lkdGgiIHJlZlk9IjUiIHJlZlg9IjkiIHZpZXdCb3g9IjAgMCAxMCAxMCIgaWQ9ImFycm93aGVhZDEwMSI+PHBhdGggc3R5bGU9InN0cm9rZS13aWR0aDogMTsgc3Ryb2tlLWRhc2hhcnJheTogMSwgMDsiIGNsYXNzPSJhcnJvd2hlYWRQYXRoIiBkPSJNIDAgMCBMIDEwIDUgTCAwIDEwIHoiPjwvcGF0aD48L21hcmtlcj48L2RlZnM+PC9nPjxnIHN0eWxlPSJvcGFjaXR5OiAxOyIgaWQ9IkwtQVBJR2F0ZXdheS1MYW1iZGFGdW5jdGlvbiIgY2xhc3M9ImVkZ2VQYXRoIExTLUFQSUdhdGV3YXkgTEUtTGFtYmRhRnVuY3Rpb24iPjxwYXRoIHN0eWxlPSJmaWxsOm5vbmUiIG1hcmtlci1lbmQ9InVybCgjYXJyb3doZWFkMTAyKSIgZD0iTTIwNi4yOTA0MTg4MzY4MDU1NCwyNjNMMTk1LjI0MjM0MTIxODE3MTMsMjY4Ljc1QzE4NC4xOTQyNjM1OTk1MzcwNCwyNzQuNSwxNjIuMDk4MTA4MzYyMjY4NSwyODYsMTUxLjA1MDAzMDc0MzYzNDI3LDI5Ny41QzE0MC4wMDE5NTMxMjUsMzA5LDE0MC4wMDE5NTMxMjUsMzIwLjUsMTQwLjAwMTk1MzEyNSwzMjYuMjVMMTQwLjAwMTk1MzEyNSwzMzIiIGNsYXNzPSJwYXRoIj48L3BhdGg+PGRlZnM+PG1hcmtlciBvcmllbnQ9ImF1dG8iIG1hcmtlckhlaWdodD0iNiIgbWFya2VyV2lkdGg9IjgiIG1hcmtlclVuaXRzPSJzdHJva2VXaWR0aCIgcmVmWT0iNSIgcmVmWD0iOSIgdmlld0JveD0iMCAwIDEwIDEwIiBpZD0iYXJyb3doZWFkMTAyIj48cGF0aCBzdHlsZT0ic3Ryb2tlLXdpZHRoOiAxOyBzdHJva2UtZGFzaGFycmF5OiAxLCAwOyIgY2xhc3M9ImFycm93aGVhZFBhdGgiIGQ9Ik0gMCAwIEwgMTAgNSBMIDAgMTAgeiI+PC9wYXRoPjwvbWFya2VyPjwvZGVmcz48L2c+PGcgc3R5bGU9Im9wYWNpdHk6IDE7IiBpZD0iTC1MYW1iZGFGdW5jdGlvbi1EeW5hbW9EQiIgY2xhc3M9ImVkZ2VQYXRoIExTLUxhbWJkYUZ1bmN0aW9uIExFLUR5bmFtb0RCIj48cGF0aCBzdHlsZT0iZmlsbDpub25lIiBtYXJrZXItZW5kPSJ1cmwoI2Fycm93aGVhZDEwMykiIGQ9Ik0xMDkuNTk0NTYzODAyMDgzMzMsMzcxTDEwMC42MjgyODIzMzUwNjk0NCwzNzYuNzVDOTEuNjYyMDAwODY4MDU1NTQsMzgyLjUsNzMuNzI5NDM3OTM0MDI3NzcsMzk0LDY0Ljc2MzE1NjQ2NzAxMzg5LDQwNS41QzU1Ljc5Njg3NSw0MTcsNTUuNzk2ODc1LDQyOC41LDU1Ljc5Njg3NSw0MzQuMjVMNTUuNzk2ODc1LDQ0MCIgY2xhc3M9InBhdGgiPjwvcGF0aD48ZGVmcz48bWFya2VyIG9yaWVudD0iYXV0byIgbWFya2VySGVpZ2h0PSI2IiBtYXJrZXJXaWR0aD0iOCIgbWFya2VyVW5pdHM9InN0cm9rZVdpZHRoIiByZWZZPSI1IiByZWZYPSI5IiB2aWV3Qm94PSIwIDAgMTAgMTAiIGlkPSJhcnJvd2hlYWQxMDMiPjxwYXRoIHN0eWxlPSJzdHJva2Utd2lkdGg6IDE7IHN0cm9rZS1kYXNoYXJyYXk6IDEsIDA7IiBjbGFzcz0iYXJyb3doZWFkUGF0aCIgZD0iTSAwIDAgTCAxMCA1IEwgMCAxMCB6Ij48L3BhdGg+PC9tYXJrZXI+PC9kZWZzPjwvZz48ZyBzdHlsZT0ib3BhY2l0eTogMTsiIGlkPSJMLUxhbWJkYUZ1bmN0aW9uLUNsb3VkV2F0Y2giIGNsYXNzPSJlZGdlUGF0aCBMUy1MYW1iZGFGdW5jdGlvbiBMRS1DbG91ZFdhdGNoIj48cGF0aCBzdHlsZT0iZmlsbDpub25lIiBtYXJrZXItZW5kPSJ1cmwoI2Fycm93aGVhZDEwNCkiIGQ9Ik0xNzAuNDA5MzQyNDQ3OTE2NjYsMzcxTDE3OS4zNzU2MjM5MTQ5MzA1NCwzNzYuNzVDMTg4LjM0MTkwNTM4MTk0NDQzLDM4Mi41LDIwNi4yNzQ0NjgzMTU5NzIyLDM5NCwyMTUuMjQwNzQ5NzgyOTg2MTEsNDA1LjVDMjI0LjIwNzAzMTI1LDQxNywyMjQuMjA3MDMxMjUsNDI4LjUsMjI0LjIwNzAzMTI1LDQzNC4yNUwyMjQuMjA3MDMxMjUsNDQwIiBjbGFzcz0icGF0aCI+PC9wYXRoPjxkZWZzPjxtYXJrZXIgb3JpZW50PSJhdXRvIiBtYXJrZXJIZWlnaHQ9IjYiIG1hcmtlcldpZHRoPSI4IiBtYXJrZXJVbml0cz0ic3Ryb2tlV2lkdGgiIHJlZlk9IjUiIHJlZlg9IjkiIHZpZXdCb3g9IjAgMCAxMCAxMCIgaWQ9ImFycm93aGVhZDEwNCI+PHBhdGggc3R5bGU9InN0cm9rZS13aWR0aDogMTsgc3Ryb2tlLWRhc2hhcnJheTogMSwgMDsiIGNsYXNzPSJhcnJvd2hlYWRQYXRoIiBkPSJNIDAgMCBMIDEwIDUgTCAwIDEwIHoiPjwvcGF0aD48L21hcmtlcj48L2RlZnM+PC9nPjxnIHN0eWxlPSJvcGFjaXR5OiAxOyIgaWQ9IkwtQVBJR2F0ZXdheS1Db2duaXRvIiBjbGFzcz0iZWRnZVBhdGggTFMtQVBJR2F0ZXdheSBMRS1Db2duaXRvIj48cGF0aCBzdHlsZT0iZmlsbDpub25lIiBtYXJrZXItZW5kPSJ1cmwoI2Fycm93aGVhZDEwNSkiIGQ9Ik0yODEuMjI1MjA2MTYzMTk0NDYsMjYzTDI5Mi4yNzMyODM3ODE4Mjg3LDI2OC43NUMzMDMuMzIxMzYxNDAwNDYzLDI3NC41LDMyNS40MTc1MTY2Mzc3MzE0NywyODYsMzM2LjQ2NTU5NDI1NjM2NTcsMjk3LjVDMzQ3LjUxMzY3MTg3NSwzMDksMzQ3LjUxMzY3MTg3NSwzMjAuNSwzNDcuNTEzNjcxODc1LDMyNi4yNUwzNDcuNTEzNjcxODc1LDMzMiIgY2xhc3M9InBhdGgiPjwvcGF0aD48ZGVmcz48bWFya2VyIG9yaWVudD0iYXV0byIgbWFya2VySGVpZ2h0PSI2IiBtYXJrZXJXaWR0aD0iOCIgbWFya2VyVW5pdHM9InN0cm9rZVdpZHRoIiByZWZZPSI1IiByZWZYPSI5IiB2aWV3Qm94PSIwIDAgMTAgMTAiIGlkPSJhcnJvd2hlYWQxMDUiPjxwYXRoIHN0eWxlPSJzdHJva2Utd2lkdGg6IDE7IHN0cm9rZS1kYXNoYXJyYXk6IDEsIDA7IiBjbGFzcz0iYXJyb3doZWFkUGF0aCIgZD0iTSAwIDAgTCAxMCA1IEwgMCAxMCB6Ij48L3BhdGg+PC9tYXJrZXI+PC9kZWZzPjwvZz48L2c+PGcgY2xhc3M9ImVkZ2VMYWJlbHMiPjxnIHN0eWxlPSJvcGFjaXR5OiAxOyIgdHJhbnNmb3JtPSJ0cmFuc2xhdGUoMjQzLjc1NzgxMjUsODEuNSkiIGNsYXNzPSJlZGdlTGFiZWwiPjxnIGNsYXNzPSJsYWJlbCIgdHJhbnNmb3JtPSJ0cmFuc2xhdGUoLTQ0LjY5MTQwNjI1LC05LjUpIj48cmVjdCBoZWlnaHQ9IjE5IiB3aWR0aD0iODkuMzgyODEyNSIgcnk9IjAiIHJ4PSIwIj48L3JlY3Q+PHRleHQ+PHRzcGFuIHg9IjEiIGR5PSIxZW0iIHhtbDpzcGFjZT0icHJlc2VydmUiPkFjY2Vzc2VzIHZpYTwvdHNwYW4+PC90ZXh0PjwvZz48L2c+PGcgc3R5bGU9Im9wYWNpdHk6IDE7IiB0cmFuc2Zvcm09InRyYW5zbGF0ZSgyNDMuNzU3ODEyNSwxODkuNSkiIGNsYXNzPSJlZGdlTGFiZWwiPjxnIGNsYXNzPSJsYWJlbCIgdHJhbnNmb3JtPSJ0cmFuc2xhdGUoLTQyLjk0MTQwNjI1LC05LjUpIj48cmVjdCBoZWlnaHQ9IjE5IiB3aWR0aD0iODUuODgyODEyNSIgcnk9IjAiIHJ4PSIwIj48L3JlY3Q+PHRleHQ+PHRzcGFuIHg9IjEiIGR5PSIxZW0iIHhtbDpzcGFjZT0icHJlc2VydmUiPkFQSSBSZXF1ZXN0PC90c3Bhbj48L3RleHQ+PC9nPjwvZz48ZyBzdHlsZT0ib3BhY2l0eTogMTsiIHRyYW5zZm9ybT0idHJhbnNsYXRlKDE0MC4wMDE5NTMxMjUsMjk3LjUpIiBjbGFzcz0iZWRnZUxhYmVsIj48ZyBjbGFzcz0ibGFiZWwiIHRyYW5zZm9ybT0idHJhbnNsYXRlKC0yOC42NjAxNTYyNSwtOS41KSI+PHJlY3QgaGVpZ2h0PSIxOSIgd2lkdGg9IjU3LjMyMDMxMjUiIHJ5PSIwIiByeD0iMCI+PC9yZWN0Pjx0ZXh0Pjx0c3BhbiB4PSIxIiBkeT0iMWVtIiB4bWw6c3BhY2U9InByZXNlcnZlIj5UcmlnZ2VyczwvdHNwYW4+PC90ZXh0PjwvZz48L2c+PGcgc3R5bGU9Im9wYWNpdHk6IDE7IiB0cmFuc2Zvcm09InRyYW5zbGF0ZSg1NS43OTY4NzUsNDA1LjUpIiBjbGFzcz0iZWRnZUxhYmVsIj48ZyBjbGFzcz0ibGFiZWwiIHRyYW5zZm9ybT0idHJhbnNsYXRlKC00Ny42Mjg5MDYyNSwtOS41KSI+PHJlY3QgaGVpZ2h0PSIxOSIgd2lkdGg9Ijk1LjI1NzgxMjUiIHJ5PSIwIiByeD0iMCI+PC9yZWN0Pjx0ZXh0Pjx0c3BhbiB4PSIxIiBkeT0iMWVtIiB4bWw6c3BhY2U9InByZXNlcnZlIj5SZWFkcy9Xcml0ZXM8L3RzcGFuPjwvdGV4dD48L2c+PC9nPjxnIHN0eWxlPSJvcGFjaXR5OiAxOyIgdHJhbnNmb3JtPSJ0cmFuc2xhdGUoMjI0LjIwNzAzMTI1LDQwNS41KSIgY2xhc3M9ImVkZ2VMYWJlbCI+PGcgY2xhc3M9ImxhYmVsIiB0cmFuc2Zvcm09InRyYW5zbGF0ZSgtMTUuODU5Mzc1LC05LjUpIj48cmVjdCBoZWlnaHQ9IjE5IiB3aWR0aD0iMzEuNzE4NzUiIHJ5PSIwIiByeD0iMCI+PC9yZWN0Pjx0ZXh0Pjx0c3BhbiB4PSIxIiBkeT0iMWVtIiB4bWw6c3BhY2U9InByZXNlcnZlIj5Mb2dzPC90c3Bhbj48L3RleHQ+PC9nPjwvZz48ZyBzdHlsZT0ib3BhY2l0eTogMTsiIHRyYW5zZm9ybT0idHJhbnNsYXRlKDM0Ny41MTM2NzE4NzUsMjk3LjUpIiBjbGFzcz0iZWRnZUxhYmVsIj48ZyBjbGFzcz0ibGFiZWwiIHRyYW5zZm9ybT0idHJhbnNsYXRlKC01My43MzA0Njg3NSwtOS41KSI+PHJlY3QgaGVpZ2h0PSIxOSIgd2lkdGg9IjEwNy40NjA5Mzc1IiByeT0iMCIgcng9IjAiPjwvcmVjdD48dGV4dD48dHNwYW4geD0iMSIgZHk9IjFlbSIgeG1sOnNwYWNlPSJwcmVzZXJ2ZSI+QXV0aGVudGljYXRpb248L3RzcGFuPjwvdGV4dD48L2c+PC9nPjwvZz48ZyBjbGFzcz0ibm9kZXMiPjxnIHN0eWxlPSJvcGFjaXR5OiAxOyIgdHJhbnNmb3JtPSJ0cmFuc2xhdGUoMjQzLjc1NzgxMjUsMjcuNSkiIGlkPSJmbG93Y2hhcnQtVXNlci05NSIgY2xhc3M9Im5vZGUgZGVmYXVsdCI+PHJlY3Qgc3R5bGU9ImZpbGw6I2Y5ZjtzdHJva2U6IzMzMztzdHJva2Utd2lkdGg6MnB4OyIgY2xhc3M9ImxhYmVsLWNvbnRhaW5lciIgaGVpZ2h0PSIzOSIgd2lkdGg9IjUyLjU3ODEyNSIgeT0iLTE5LjUiIHg9Ii0yNi4yODkwNjI1IiByeT0iMCIgcng9IjAiPjwvcmVjdD48ZyB0cmFuc2Zvcm09InRyYW5zbGF0ZSgwLDApIiBjbGFzcz0ibGFiZWwiPjxnIHRyYW5zZm9ybT0idHJhbnNsYXRlKC0xNi4yODkwNjI1LC05LjUpIj48dGV4dCBzdHlsZT0iIj48dHNwYW4geD0iMSIgZHk9IjFlbSIgeG1sOnNwYWNlPSJwcmVzZXJ2ZSI+VXNlcjwvdHNwYW4+PC90ZXh0PjwvZz48L2c+PC9nPjxnIHN0eWxlPSJvcGFjaXR5OiAxOyIgdHJhbnNmb3JtPSJ0cmFuc2xhdGUoMjQzLjc1NzgxMjUsMTM1LjUpIiBpZD0iZmxvd2NoYXJ0LUNsaWVudC05NiIgY2xhc3M9Im5vZGUgZGVmYXVsdCI+PHJlY3Qgc3R5bGU9ImZpbGw6I2ZmOTtzdHJva2U6IzMzMztzdHJva2Utd2lkdGg6MnB4OyIgY2xhc3M9ImxhYmVsLWNvbnRhaW5lciIgaGVpZ2h0PSIzOSIgd2lkdGg9IjE3MC45ODQzNzUiIHk9Ii0xOS41IiB4PSItODUuNDkyMTg3NSIgcnk9IjAiIHJ4PSIwIj48L3JlY3Q+PGcgdHJhbnNmb3JtPSJ0cmFuc2xhdGUoMCwwKSIgY2xhc3M9ImxhYmVsIj48ZyB0cmFuc2Zvcm09InRyYW5zbGF0ZSgtNzUuNDkyMTg3NSwtOS41KSI+PHRleHQgc3R5bGU9IiI+PHRzcGFuIHg9IjEiIGR5PSIxZW0iIHhtbDpzcGFjZT0icHJlc2VydmUiPldlYiBvciBNb2JpbGUgQ2xpZW50PC90c3Bhbj48L3RleHQ+PC9nPjwvZz48L2c+PGcgc3R5bGU9Im9wYWNpdHk6IDE7IiB0cmFuc2Zvcm09InRyYW5zbGF0ZSgyNDMuNzU3ODEyNSwyNDMuNSkiIGlkPSJmbG93Y2hhcnQtQVBJR2F0ZXdheS05OCIgY2xhc3M9Im5vZGUgZGVmYXVsdCI+PHJlY3Qgc3R5bGU9ImZpbGw6IzlmZjtzdHJva2U6IzMzMztzdHJva2Utd2lkdGg6MnB4OyIgY2xhc3M9ImxhYmVsLWNvbnRhaW5lciIgaGVpZ2h0PSIzOSIgd2lkdGg9IjExMi4yNDIxODc1IiB5PSItMTkuNSIgeD0iLTU2LjEyMTA5Mzc1IiByeT0iMCIgcng9IjAiPjwvcmVjdD48ZyB0cmFuc2Zvcm09InRyYW5zbGF0ZSgwLDApIiBjbGFzcz0ibGFiZWwiPjxnIHRyYW5zZm9ybT0idHJhbnNsYXRlKC00Ni4xMjEwOTM3NSwtOS41KSI+PHRleHQgc3R5bGU9IiI+PHRzcGFuIHg9IjEiIGR5PSIxZW0iIHhtbDpzcGFjZT0icHJlc2VydmUiPkFQSSBHYXRld2F5PC90c3Bhbj48L3RleHQ+PC9nPjwvZz48L2c+PGcgc3R5bGU9Im9wYWNpdHk6IDE7IiB0cmFuc2Zvcm09InRyYW5zbGF0ZSgxNDAuMDAxOTUzMTI1LDM1MS41KSIgaWQ9ImZsb3djaGFydC1MYW1iZGFGdW5jdGlvbi0xMDAiIGNsYXNzPSJub2RlIGRlZmF1bHQiPjxyZWN0IHN0eWxlPSJmaWxsOiM5Zjk7c3Ryb2tlOiMzMzM7c3Ryb2tlLXdpZHRoOjJweDsiIGNsYXNzPSJsYWJlbC1jb250YWluZXIiIGhlaWdodD0iMzkiIHdpZHRoPSIxNzguMzIwMzEyNSIgeT0iLTE5LjUiIHg9Ii04OS4xNjAxNTYyNSIgcnk9IjAiIHJ4PSIwIj48L3JlY3Q+PGcgdHJhbnNmb3JtPSJ0cmFuc2xhdGUoMCwwKSIgY2xhc3M9ImxhYmVsIj48ZyB0cmFuc2Zvcm09InRyYW5zbGF0ZSgtNzkuMTYwMTU2MjUsLTkuNSkiPjx0ZXh0IHN0eWxlPSIiPjx0c3BhbiB4PSIxIiBkeT0iMWVtIiB4bWw6c3BhY2U9InByZXNlcnZlIj5BV1MgTGFtYmRhIEZ1bmN0aW9uPC90c3Bhbj48L3RleHQ+PC9nPjwvZz48L2c+PGcgc3R5bGU9Im9wYWNpdHk6IDE7IiB0cmFuc2Zvcm09InRyYW5zbGF0ZSg1NS43OTY4NzUsNDU5LjUpIiBpZD0iZmxvd2NoYXJ0LUR5bmFtb0RCLTEwMiIgY2xhc3M9Im5vZGUgZGVmYXVsdCI+PHJlY3Qgc3R5bGU9ImZpbGw6I2Y5OTtzdHJva2U6IzMzMztzdHJva2Utd2lkdGg6MnB4OyIgY2xhc3M9ImxhYmVsLWNvbnRhaW5lciIgaGVpZ2h0PSIzOSIgd2lkdGg9Ijk1LjU5Mzc1IiB5PSItMTkuNSIgeD0iLTQ3Ljc5Njg3NSIgcnk9IjAiIHJ4PSIwIj48L3JlY3Q+PGcgdHJhbnNmb3JtPSJ0cmFuc2xhdGUoMCwwKSIgY2xhc3M9ImxhYmVsIj48ZyB0cmFuc2Zvcm09InRyYW5zbGF0ZSgtMzcuNzk2ODc1LC05LjUpIj48dGV4dCBzdHlsZT0iIj48dHNwYW4geD0iMSIgZHk9IjFlbSIgeG1sOnNwYWNlPSJwcmVzZXJ2ZSI+RHluYW1vREI8L3RzcGFuPjwvdGV4dD48L2c+PC9nPjwvZz48ZyBzdHlsZT0ib3BhY2l0eTogMTsiIHRyYW5zZm9ybT0idHJhbnNsYXRlKDIyNC4yMDcwMzEyNSw0NTkuNSkiIGlkPSJmbG93Y2hhcnQtQ2xvdWRXYXRjaC0xMDQiIGNsYXNzPSJub2RlIGRlZmF1bHQiPjxyZWN0IHN0eWxlPSJmaWxsOiM5OWY7c3Ryb2tlOiMzMzM7c3Ryb2tlLXdpZHRoOjJweDsiIGNsYXNzPSJsYWJlbC1jb250YWluZXIiIGhlaWdodD0iMzkiIHdpZHRoPSIxNDEuMjI2NTYyNSIgeT0iLTE5LjUiIHg9Ii03MC42MTMyODEyNSIgcnk9IjAiIHJ4PSIwIj48L3JlY3Q+PGcgdHJhbnNmb3JtPSJ0cmFuc2xhdGUoMCwwKSIgY2xhc3M9ImxhYmVsIj48ZyB0cmFuc2Zvcm09InRyYW5zbGF0ZSgtNjAuNjEzMjgxMjUsLTkuNSkiPjx0ZXh0IHN0eWxlPSIiPjx0c3BhbiB4PSIxIiBkeT0iMWVtIiB4bWw6c3BhY2U9InByZXNlcnZlIj5DbG91ZFdhdGNoIExvZ3M8L3RzcGFuPjwvdGV4dD48L2c+PC9nPjwvZz48ZyBzdHlsZT0ib3BhY2l0eTogMTsiIHRyYW5zZm9ybT0idHJhbnNsYXRlKDM0Ny41MTM2NzE4NzUsMzUxLjUpIiBpZD0iZmxvd2NoYXJ0LUNvZ25pdG8tMTA2IiBjbGFzcz0ibm9kZSBkZWZhdWx0Ij48cmVjdCBzdHlsZT0iZmlsbDojY2ZjO3N0cm9rZTojMzMzO3N0cm9rZS13aWR0aDoycHg7IiBjbGFzcz0ibGFiZWwtY29udGFpbmVyIiBoZWlnaHQ9IjM5IiB3aWR0aD0iMTM2LjcwMzEyNSIgeT0iLTE5LjUiIHg9Ii02OC4zNTE1NjI1IiByeT0iMCIgcng9IjAiPjwvcmVjdD48ZyB0cmFuc2Zvcm09InRyYW5zbGF0ZSgwLDApIiBjbGFzcz0ibGFiZWwiPjxnIHRyYW5zZm9ybT0idHJhbnNsYXRlKC01OC4zNTE1NjI1LC05LjUpIj48dGV4dCBzdHlsZT0iIj48dHNwYW4geD0iMSIgZHk9IjFlbSIgeG1sOnNwYWNlPSJwcmVzZXJ2ZSI+QW1hem9uIENvZ25pdG88L3RzcGFuPjwvdGV4dD48L2c+PC9nPjwvZz48L2c+PC9nPjwvZz48L3N2Zz4=;" vertex="1" parent="1">
                        <mxGeometry x="60" y="160" width="100" height="487" as="geometry"/>
                    </mxCell>
                </UserObject>
                <UserObject label="" mermaidData="{&#10;  &quot;data&quot;: &quot;classDiagram\n    class User {\n        +userId: String\n        +username: String\n        +password: String\n        +email: String\n    }\n\n    class Task {\n        +taskId: String\n        +userId: String\n        +description: String\n        +status: String\n        +createdAt: DateTime\n        +updatedAt: DateTime\n    }\n\n    class Client {\n        +webClient: String\n        +mobileClient: String\n    }\n\n    class APIGateway {\n        +handleRequests(): void\n    }\n\n    class LambdaFunction {\n        +handleBusinessLogic(): void\n        +validateInput(): void\n    }\n\n    class DynamoDB {\n        +putItem(): void\n        +getItem(): void\n        +updateItem(): void\n        +deleteItem(): void\n    }\n\n    class CloudWatch {\n        +log(): void\n    }\n\n    class Cognito {\n        +authenticateUser(): void\n        +authorizeUser(): void\n    }\n\n    User --&gt; Task : \&quot;1 to many\&quot;\n    Client --&gt; APIGateway : \&quot;sends requests\&quot;\n    APIGateway --&gt; LambdaFunction : \&quot;triggers\&quot;\n    LambdaFunction --&gt; DynamoDB : \&quot;interacts\&quot;\n    LambdaFunction --&gt; CloudWatch : \&quot;logs to\&quot;\n    APIGateway --&gt; Cognito : \&quot;authenticates\&quot;\n\n    Client : &lt;&lt;Component&gt;&gt;\n    APIGateway : &lt;&lt;Service&gt;&gt;\n    LambdaFunction : &lt;&lt;Function&gt;&gt;\n    DynamoDB : &lt;&lt;Database&gt;&gt;\n    CloudWatch : &lt;&lt;Monitoring&gt;&gt;\n    Cognito : &lt;&lt;Authentication&gt;&gt;\n&quot;,&#10;  &quot;config&quot;: {&#10;    &quot;theme&quot;: &quot;neutral&quot;,&#10;    &quot;arrowMarkerAbsolute&quot;: false,&#10;    &quot;flowchart&quot;: {&#10;      &quot;htmlLabels&quot;: false&#10;    },&#10;    &quot;sequence&quot;: {&#10;      &quot;diagramMarginX&quot;: 50,&#10;      &quot;diagramMarginY&quot;: 10,&#10;      &quot;actorMargin&quot;: 50,&#10;      &quot;width&quot;: 150,&#10;      &quot;height&quot;: 65,&#10;      &quot;boxMargin&quot;: 10,&#10;      &quot;boxTextMargin&quot;: 5,&#10;      &quot;noteMargin&quot;: 10,&#10;      &quot;messageMargin&quot;: 35,&#10;      &quot;mirrorActors&quot;: true,&#10;      &quot;bottomMarginAdj&quot;: 1,&#10;      &quot;useMaxWidth&quot;: true,&#10;      &quot;rightAngles&quot;: false,&#10;      &quot;showSequenceNumbers&quot;: false&#10;    },&#10;    &quot;gantt&quot;: {&#10;      &quot;titleTopMargin&quot;: 25,&#10;      &quot;barHeight&quot;: 20,&#10;      &quot;barGap&quot;: 4,&#10;      &quot;topPadding&quot;: 50,&#10;      &quot;leftPadding&quot;: 75,&#10;      &quot;gridLineStartPadding&quot;: 35,&#10;      &quot;fontSize&quot;: 11,&#10;      &quot;fontFamily&quot;: &quot;\&quot;Open-Sans\&quot;, \&quot;sans-serif\&quot;&quot;,&#10;      &quot;numberSectionStyles&quot;: 4,&#10;      &quot;axisFormat&quot;: &quot;%Y-%m-%d&quot;&#10;    }&#10;  }&#10;}" id="DZxN7l-nGZsO6GZUW6Sb-4">
                    <mxCell style="shape=image;noLabel=1;verticalAlign=top;imageAspect=1;image=data:image/svg+xml,PHN2ZyBhcmlhLWxhYmVsbGVkYnk9ImNoYXJ0LXRpdGxlLWdlTWVybWFpZE91dHB1dC0xNzI1ODEzNTIwMjI3IGNoYXJ0LWRlc2MtZ2VNZXJtYWlkT3V0cHV0LTE3MjU4MTM1MjAyMjciIHJvbGU9ImltZyIgdmlld0JveD0iMCAwIDUwNi4xNzU3ODEyNSA4NjkiIHN0eWxlPSJtYXgtd2lkdGg6IDUwNi4xNzU3ODEyNXB4OyIgaGVpZ2h0PSI4NjkiIHhtbG5zOnhsaW5rPSJodHRwOi8vd3d3LnczLm9yZy8xOTk5L3hsaW5rIiB4bWxucz0iaHR0cDovL3d3dy53My5vcmcvMjAwMC9zdmciIHdpZHRoPSIxMDAlIiBpZD0iZ2VNZXJtYWlkT3V0cHV0LTE3MjU4MTM1MjAyMjciPjx0aXRsZSBpZD0iY2hhcnQtdGl0bGUtZ2VNZXJtYWlkT3V0cHV0LTE3MjU4MTM1MjAyMjciPjwvdGl0bGU+PGRlc2MgaWQ9ImNoYXJ0LWRlc2MtZ2VNZXJtYWlkT3V0cHV0LTE3MjU4MTM1MjAyMjciPjwvZGVzYz48c3R5bGU+I2dlTWVybWFpZE91dHB1dC0xNzI1ODEzNTIwMjI3IHtmb250LWZhbWlseToidHJlYnVjaGV0IG1zIix2ZXJkYW5hLGFyaWFsLHNhbnMtc2VyaWY7Zm9udC1zaXplOjE2cHg7ZmlsbDojMDAwMDAwO30jZ2VNZXJtYWlkT3V0cHV0LTE3MjU4MTM1MjAyMjcgLmVycm9yLWljb257ZmlsbDojNTUyMjIyO30jZ2VNZXJtYWlkT3V0cHV0LTE3MjU4MTM1MjAyMjcgLmVycm9yLXRleHR7ZmlsbDojNTUyMjIyO3N0cm9rZTojNTUyMjIyO30jZ2VNZXJtYWlkT3V0cHV0LTE3MjU4MTM1MjAyMjcgLmVkZ2UtdGhpY2tuZXNzLW5vcm1hbHtzdHJva2Utd2lkdGg6MnB4O30jZ2VNZXJtYWlkT3V0cHV0LTE3MjU4MTM1MjAyMjcgLmVkZ2UtdGhpY2tuZXNzLXRoaWNre3N0cm9rZS13aWR0aDozLjVweDt9I2dlTWVybWFpZE91dHB1dC0xNzI1ODEzNTIwMjI3IC5lZGdlLXBhdHRlcm4tc29saWR7c3Ryb2tlLWRhc2hhcnJheTowO30jZ2VNZXJtYWlkT3V0cHV0LTE3MjU4MTM1MjAyMjcgLmVkZ2UtcGF0dGVybi1kYXNoZWR7c3Ryb2tlLWRhc2hhcnJheTozO30jZ2VNZXJtYWlkT3V0cHV0LTE3MjU4MTM1MjAyMjcgLmVkZ2UtcGF0dGVybi1kb3R0ZWR7c3Ryb2tlLWRhc2hhcnJheToyO30jZ2VNZXJtYWlkT3V0cHV0LTE3MjU4MTM1MjAyMjcgLm1hcmtlcntmaWxsOiM2NjY7c3Ryb2tlOiM2NjY7fSNnZU1lcm1haWRPdXRwdXQtMTcyNTgxMzUyMDIyNyAubWFya2VyLmNyb3Nze3N0cm9rZTojNjY2O30jZ2VNZXJtYWlkT3V0cHV0LTE3MjU4MTM1MjAyMjcgc3Zne2ZvbnQtZmFtaWx5OiJ0cmVidWNoZXQgbXMiLHZlcmRhbmEsYXJpYWwsc2Fucy1zZXJpZjtmb250LXNpemU6MTZweDt9I2dlTWVybWFpZE91dHB1dC0xNzI1ODEzNTIwMjI3IGcuY2xhc3NHcm91cCB0ZXh0e2ZpbGw6Izk5OTtmaWxsOiMxMTExMTE7c3Ryb2tlOm5vbmU7Zm9udC1mYW1pbHk6InRyZWJ1Y2hldCBtcyIsdmVyZGFuYSxhcmlhbCxzYW5zLXNlcmlmO2ZvbnQtc2l6ZToxMHB4O30jZ2VNZXJtYWlkT3V0cHV0LTE3MjU4MTM1MjAyMjcgZy5jbGFzc0dyb3VwIHRleHQgLnRpdGxle2ZvbnQtd2VpZ2h0OmJvbGRlcjt9I2dlTWVybWFpZE91dHB1dC0xNzI1ODEzNTIwMjI3IC5ub2RlTGFiZWwsI2dlTWVybWFpZE91dHB1dC0xNzI1ODEzNTIwMjI3IC5lZGdlTGFiZWx7Y29sb3I6IzExMTExMTt9I2dlTWVybWFpZE91dHB1dC0xNzI1ODEzNTIwMjI3IC5lZGdlTGFiZWwgLmxhYmVsIHJlY3R7ZmlsbDojZWVlO30jZ2VNZXJtYWlkT3V0cHV0LTE3MjU4MTM1MjAyMjcgLmxhYmVsIHRleHR7ZmlsbDojMTExMTExO30jZ2VNZXJtYWlkT3V0cHV0LTE3MjU4MTM1MjAyMjcgLmVkZ2VMYWJlbCAubGFiZWwgc3BhbntiYWNrZ3JvdW5kOiNlZWU7fSNnZU1lcm1haWRPdXRwdXQtMTcyNTgxMzUyMDIyNyAuY2xhc3NUaXRsZXtmb250LXdlaWdodDpib2xkZXI7fSNnZU1lcm1haWRPdXRwdXQtMTcyNTgxMzUyMDIyNyAubm9kZSByZWN0LCNnZU1lcm1haWRPdXRwdXQtMTcyNTgxMzUyMDIyNyAubm9kZSBjaXJjbGUsI2dlTWVybWFpZE91dHB1dC0xNzI1ODEzNTIwMjI3IC5ub2RlIGVsbGlwc2UsI2dlTWVybWFpZE91dHB1dC0xNzI1ODEzNTIwMjI3IC5ub2RlIHBvbHlnb24sI2dlTWVybWFpZE91dHB1dC0xNzI1ODEzNTIwMjI3IC5ub2RlIHBhdGh7ZmlsbDojZWVlO3N0cm9rZTojOTk5O3N0cm9rZS13aWR0aDoxcHg7fSNnZU1lcm1haWRPdXRwdXQtMTcyNTgxMzUyMDIyNyAuZGl2aWRlcntzdHJva2U6Izk5OTtzdHJva2U6MTt9I2dlTWVybWFpZE91dHB1dC0xNzI1ODEzNTIwMjI3IGcuY2xpY2thYmxle2N1cnNvcjpwb2ludGVyO30jZ2VNZXJtYWlkT3V0cHV0LTE3MjU4MTM1MjAyMjcgZy5jbGFzc0dyb3VwIHJlY3R7ZmlsbDojZWVlO3N0cm9rZTojOTk5O30jZ2VNZXJtYWlkT3V0cHV0LTE3MjU4MTM1MjAyMjcgZy5jbGFzc0dyb3VwIGxpbmV7c3Ryb2tlOiM5OTk7c3Ryb2tlLXdpZHRoOjE7fSNnZU1lcm1haWRPdXRwdXQtMTcyNTgxMzUyMDIyNyAuY2xhc3NMYWJlbCAuYm94e3N0cm9rZTpub25lO3N0cm9rZS13aWR0aDowO2ZpbGw6I2VlZTtvcGFjaXR5OjAuNTt9I2dlTWVybWFpZE91dHB1dC0xNzI1ODEzNTIwMjI3IC5jbGFzc0xhYmVsIC5sYWJlbHtmaWxsOiM5OTk7Zm9udC1zaXplOjEwcHg7fSNnZU1lcm1haWRPdXRwdXQtMTcyNTgxMzUyMDIyNyAucmVsYXRpb257c3Ryb2tlOiM2NjY7c3Ryb2tlLXdpZHRoOjE7ZmlsbDpub25lO30jZ2VNZXJtYWlkT3V0cHV0LTE3MjU4MTM1MjAyMjcgLmRhc2hlZC1saW5le3N0cm9rZS1kYXNoYXJyYXk6Mzt9I2dlTWVybWFpZE91dHB1dC0xNzI1ODEzNTIwMjI3ICNjb21wb3NpdGlvblN0YXJ0LCNnZU1lcm1haWRPdXRwdXQtMTcyNTgxMzUyMDIyNyAuY29tcG9zaXRpb257ZmlsbDojNjY2IWltcG9ydGFudDtzdHJva2U6IzY2NiFpbXBvcnRhbnQ7c3Ryb2tlLXdpZHRoOjE7fSNnZU1lcm1haWRPdXRwdXQtMTcyNTgxMzUyMDIyNyAjY29tcG9zaXRpb25FbmQsI2dlTWVybWFpZE91dHB1dC0xNzI1ODEzNTIwMjI3IC5jb21wb3NpdGlvbntmaWxsOiM2NjYhaW1wb3J0YW50O3N0cm9rZTojNjY2IWltcG9ydGFudDtzdHJva2Utd2lkdGg6MTt9I2dlTWVybWFpZE91dHB1dC0xNzI1ODEzNTIwMjI3ICNkZXBlbmRlbmN5U3RhcnQsI2dlTWVybWFpZE91dHB1dC0xNzI1ODEzNTIwMjI3IC5kZXBlbmRlbmN5e2ZpbGw6IzY2NiFpbXBvcnRhbnQ7c3Ryb2tlOiM2NjYhaW1wb3J0YW50O3N0cm9rZS13aWR0aDoxO30jZ2VNZXJtYWlkT3V0cHV0LTE3MjU4MTM1MjAyMjcgI2RlcGVuZGVuY3lTdGFydCwjZ2VNZXJtYWlkT3V0cHV0LTE3MjU4MTM1MjAyMjcgLmRlcGVuZGVuY3l7ZmlsbDojNjY2IWltcG9ydGFudDtzdHJva2U6IzY2NiFpbXBvcnRhbnQ7c3Ryb2tlLXdpZHRoOjE7fSNnZU1lcm1haWRPdXRwdXQtMTcyNTgxMzUyMDIyNyAjZXh0ZW5zaW9uU3RhcnQsI2dlTWVybWFpZE91dHB1dC0xNzI1ODEzNTIwMjI3IC5leHRlbnNpb257ZmlsbDojNjY2IWltcG9ydGFudDtzdHJva2U6IzY2NiFpbXBvcnRhbnQ7c3Ryb2tlLXdpZHRoOjE7fSNnZU1lcm1haWRPdXRwdXQtMTcyNTgxMzUyMDIyNyAjZXh0ZW5zaW9uRW5kLCNnZU1lcm1haWRPdXRwdXQtMTcyNTgxMzUyMDIyNyAuZXh0ZW5zaW9ue2ZpbGw6IzY2NiFpbXBvcnRhbnQ7c3Ryb2tlOiM2NjYhaW1wb3J0YW50O3N0cm9rZS13aWR0aDoxO30jZ2VNZXJtYWlkT3V0cHV0LTE3MjU4MTM1MjAyMjcgI2FnZ3JlZ2F0aW9uU3RhcnQsI2dlTWVybWFpZE91dHB1dC0xNzI1ODEzNTIwMjI3IC5hZ2dyZWdhdGlvbntmaWxsOiNlZWUhaW1wb3J0YW50O3N0cm9rZTojNjY2IWltcG9ydGFudDtzdHJva2Utd2lkdGg6MTt9I2dlTWVybWFpZE91dHB1dC0xNzI1ODEzNTIwMjI3ICNhZ2dyZWdhdGlvbkVuZCwjZ2VNZXJtYWlkT3V0cHV0LTE3MjU4MTM1MjAyMjcgLmFnZ3JlZ2F0aW9ue2ZpbGw6I2VlZSFpbXBvcnRhbnQ7c3Ryb2tlOiM2NjYhaW1wb3J0YW50O3N0cm9rZS13aWR0aDoxO30jZ2VNZXJtYWlkT3V0cHV0LTE3MjU4MTM1MjAyMjcgLmVkZ2VUZXJtaW5hbHN7Zm9udC1zaXplOjExcHg7fSNnZU1lcm1haWRPdXRwdXQtMTcyNTgxMzUyMDIyNyA6cm9vdHstLW1lcm1haWQtZm9udC1mYW1pbHk6InRyZWJ1Y2hldCBtcyIsdmVyZGFuYSxhcmlhbCxzYW5zLXNlcmlmO308L3N0eWxlPjxnIHRyYW5zZm9ybT0idHJhbnNsYXRlKDAsIDApIj48ZGVmcz48bWFya2VyIG9yaWVudD0iYXV0byIgbWFya2VySGVpZ2h0PSIyNDAiIG1hcmtlcldpZHRoPSIxOTAiIHJlZlk9IjciIHJlZlg9IjAiIGNsYXNzPSJtYXJrZXIgYWdncmVnYXRpb24gY2xhc3NEaWFncmFtIiBpZD0iY2xhc3NEaWFncmFtLWFnZ3JlZ2F0aW9uU3RhcnQiPjxwYXRoIGQ9Ik0gMTgsNyBMOSwxMyBMMSw3IEw5LDEgWiI+PC9wYXRoPjwvbWFya2VyPjwvZGVmcz48ZGVmcz48bWFya2VyIG9yaWVudD0iYXV0byIgbWFya2VySGVpZ2h0PSIyOCIgbWFya2VyV2lkdGg9IjIwIiByZWZZPSI3IiByZWZYPSIxOSIgY2xhc3M9Im1hcmtlciBhZ2dyZWdhdGlvbiBjbGFzc0RpYWdyYW0iIGlkPSJjbGFzc0RpYWdyYW0tYWdncmVnYXRpb25FbmQiPjxwYXRoIGQ9Ik0gMTgsNyBMOSwxMyBMMSw3IEw5LDEgWiI+PC9wYXRoPjwvbWFya2VyPjwvZGVmcz48ZGVmcz48bWFya2VyIG9yaWVudD0iYXV0byIgbWFya2VySGVpZ2h0PSIyNDAiIG1hcmtlcldpZHRoPSIxOTAiIHJlZlk9IjciIHJlZlg9IjAiIGNsYXNzPSJtYXJrZXIgZXh0ZW5zaW9uIGNsYXNzRGlhZ3JhbSIgaWQ9ImNsYXNzRGlhZ3JhbS1leHRlbnNpb25TdGFydCI+PHBhdGggZD0iTSAxLDcgTDE4LDEzIFYgMSBaIj48L3BhdGg+PC9tYXJrZXI+PC9kZWZzPjxkZWZzPjxtYXJrZXIgb3JpZW50PSJhdXRvIiBtYXJrZXJIZWlnaHQ9IjI4IiBtYXJrZXJXaWR0aD0iMjAiIHJlZlk9IjciIHJlZlg9IjE5IiBjbGFzcz0ibWFya2VyIGV4dGVuc2lvbiBjbGFzc0RpYWdyYW0iIGlkPSJjbGFzc0RpYWdyYW0tZXh0ZW5zaW9uRW5kIj48cGF0aCBkPSJNIDEsMSBWIDEzIEwxOCw3IFoiPjwvcGF0aD48L21hcmtlcj48L2RlZnM+PGRlZnM+PG1hcmtlciBvcmllbnQ9ImF1dG8iIG1hcmtlckhlaWdodD0iMjQwIiBtYXJrZXJXaWR0aD0iMTkwIiByZWZZPSI3IiByZWZYPSIwIiBjbGFzcz0ibWFya2VyIGNvbXBvc2l0aW9uIGNsYXNzRGlhZ3JhbSIgaWQ9ImNsYXNzRGlhZ3JhbS1jb21wb3NpdGlvblN0YXJ0Ij48cGF0aCBkPSJNIDE4LDcgTDksMTMgTDEsNyBMOSwxIFoiPjwvcGF0aD48L21hcmtlcj48L2RlZnM+PGRlZnM+PG1hcmtlciBvcmllbnQ9ImF1dG8iIG1hcmtlckhlaWdodD0iMjgiIG1hcmtlcldpZHRoPSIyMCIgcmVmWT0iNyIgcmVmWD0iMTkiIGNsYXNzPSJtYXJrZXIgY29tcG9zaXRpb24gY2xhc3NEaWFncmFtIiBpZD0iY2xhc3NEaWFncmFtLWNvbXBvc2l0aW9uRW5kIj48cGF0aCBkPSJNIDE4LDcgTDksMTMgTDEsNyBMOSwxIFoiPjwvcGF0aD48L21hcmtlcj48L2RlZnM+PGRlZnM+PG1hcmtlciBvcmllbnQ9ImF1dG8iIG1hcmtlckhlaWdodD0iMjQwIiBtYXJrZXJXaWR0aD0iMTkwIiByZWZZPSI3IiByZWZYPSIwIiBjbGFzcz0ibWFya2VyIGRlcGVuZGVuY3kgY2xhc3NEaWFncmFtIiBpZD0iY2xhc3NEaWFncmFtLWRlcGVuZGVuY3lTdGFydCI+PHBhdGggZD0iTSA1LDcgTDksMTMgTDEsNyBMOSwxIFoiPjwvcGF0aD48L21hcmtlcj48L2RlZnM+PGRlZnM+PG1hcmtlciBvcmllbnQ9ImF1dG8iIG1hcmtlckhlaWdodD0iMjgiIG1hcmtlcldpZHRoPSIyMCIgcmVmWT0iNyIgcmVmWD0iMTkiIGNsYXNzPSJtYXJrZXIgZGVwZW5kZW5jeSBjbGFzc0RpYWdyYW0iIGlkPSJjbGFzc0RpYWdyYW0tZGVwZW5kZW5jeUVuZCI+PHBhdGggZD0iTSAxOCw3IEw5LDEzIEwxNCw3IEw5LDEgWiI+PC9wYXRoPjwvbWFya2VyPjwvZGVmcz48ZyBjbGFzcz0icm9vdCI+PGcgY2xhc3M9ImNsdXN0ZXJzIj48L2c+PGcgY2xhc3M9ImVkZ2VQYXRocyI+PHBhdGggbWFya2VyLWVuZD0idXJsKCNjbGFzc0RpYWdyYW0tZGVwZW5kZW5jeUVuZCkiIHN0eWxlPSJmaWxsOm5vbmUiIGNsYXNzPSJlZGdlLXBhdHRlcm4tc29saWQgcmVsYXRpb24iIGlkPSJpZDEiIGQ9Ik05Ni43OTI5Njg3NSwxNThMOTYuNzkyOTY4NzUsMTYzLjc1Qzk2Ljc5Mjk2ODc1LDE2OS41LDk2Ljc5Mjk2ODc1LDE4MSw5Ni43OTI5Njg3NSwxOTIuNUM5Ni43OTI5Njg3NSwyMDQsOTYuNzkyOTY4NzUsMjE1LjUsOTYuNzkyOTY4NzUsMjIxLjI1TDk2Ljc5Mjk2ODc1LDIyNyI+PC9wYXRoPjxwYXRoIG1hcmtlci1lbmQ9InVybCgjY2xhc3NEaWFncmFtLWRlcGVuZGVuY3lFbmQpIiBzdHlsZT0iZmlsbDpub25lIiBjbGFzcz0iZWRnZS1wYXR0ZXJuLXNvbGlkIHJlbGF0aW9uIiBpZD0iaWQyIiBkPSJNMzA4Ljg3ODkwNjI1LDE0Ni41TDMwOC44Nzg5MDYyNSwxNTQuMTY2NjY2NjY2NjY2NjZDMzA4Ljg3ODkwNjI1LDE2MS44MzMzMzMzMzMzMzMzNCwzMDguODc4OTA2MjUsMTc3LjE2NjY2NjY2NjY2NjY2LDMwOC44Nzg5MDYyNSwxOTguMjVDMzA4Ljg3ODkwNjI1LDIxOS4zMzMzMzMzMzMzMzMzNCwzMDguODc4OTA2MjUsMjQ2LjE2NjY2NjY2NjY2NjY2LDMwOC44Nzg5MDYyNSwyNTkuNTgzMzMzMzMzMzMzM0wzMDguODc4OTA2MjUsMjczIj48L3BhdGg+PHBhdGggbWFya2VyLWVuZD0idXJsKCNjbGFzc0RpYWdyYW0tZGVwZW5kZW5jeUVuZCkiIHN0eWxlPSJmaWxsOm5vbmUiIGNsYXNzPSJlZGdlLXBhdHRlcm4tc29saWQgcmVsYXRpb24iIGlkPSJpZDMiIGQ9Ik0yNjUuODAyNjA5MDgwMTg4NywzNzdMMjU0LjY4ODM3MjE1MDE1NzIyLDM5MC40MTY2NjY2NjY2NjY3QzI0My41NzQxMzUyMjAxMjU3OCw0MDMuODMzMzMzMzMzMzMzMywyMjEuMzQ1NjYxMzYwMDYyODgsNDMwLjY2NjY2NjY2NjY2NjcsMjEwLjIzMTQyNDQzMDAzMTQ0LDQ0OS44MzMzMzMzMzMzMzMzQzE5OS4xMTcxODc1LDQ2OSwxOTkuMTE3MTg3NSw0ODAuNSwxOTkuMTE3MTg3NSw0ODYuMjVMMTk5LjExNzE4NzUsNDkyIj48L3BhdGg+PHBhdGggbWFya2VyLWVuZD0idXJsKCNjbGFzc0RpYWdyYW0tZGVwZW5kZW5jeUVuZCkiIHN0eWxlPSJmaWxsOm5vbmUiIGNsYXNzPSJlZGdlLXBhdHRlcm4tc29saWQgcmVsYXRpb24iIGlkPSJpZDQiIGQ9Ik0xNDcuMDM2MjAyNTY2OTY0MjgsNjE5TDE0Mi4zMjAyMDc4NjgzMDM1Niw2MjQuNzVDMTM3LjYwNDIxMzE2OTY0Mjg2LDYzMC41LDEyOC4xNzIyMjM3NzIzMjE0Miw2NDIsMTIzLjQ1NjIyOTA3MzY2MDcxLDY1My41QzExOC43NDAyMzQzNzUsNjY1LDExOC43NDAyMzQzNzUsNjc2LjUsMTE4Ljc0MDIzNDM3NSw2ODIuMjVMMTE4Ljc0MDIzNDM3NSw2ODgiPjwvcGF0aD48cGF0aCBtYXJrZXItZW5kPSJ1cmwoI2NsYXNzRGlhZ3JhbS1kZXBlbmRlbmN5RW5kKSIgc3R5bGU9ImZpbGw6bm9uZSIgY2xhc3M9ImVkZ2UtcGF0dGVybi1zb2xpZCByZWxhdGlvbiIgaWQ9ImlkNSIgZD0iTTI1MS4xOTgxNzI0MzMwMzU3Miw2MTlMMjU1LjkxNDE2NzEzMTY5NjQ0LDYyNC43NUMyNjAuNjMwMTYxODMwMzU3MTcsNjMwLjUsMjcwLjA2MjE1MTIyNzY3ODYsNjQyLDI3NC43NzgxNDU5MjYzMzkzLDY1OS4yNUMyNzkuNDk0MTQwNjI1LDY3Ni41LDI3OS40OTQxNDA2MjUsNjk5LjUsMjc5LjQ5NDE0MDYyNSw3MTFMMjc5LjQ5NDE0MDYyNSw3MjIuNSI+PC9wYXRoPjxwYXRoIG1hcmtlci1lbmQ9InVybCgjY2xhc3NEaWFncmFtLWRlcGVuZGVuY3lFbmQpIiBzdHlsZT0iZmlsbDpub25lIiBjbGFzcz0iZWRnZS1wYXR0ZXJuLXNvbGlkIHJlbGF0aW9uIiBpZD0iaWQ2IiBkPSJNMzUxLjk1NTIwMzQxOTgxMTMsMzc3TDM2My4wNjk0NDAzNDk4NDI4LDM5MC40MTY2NjY2NjY2NjY3QzM3NC4xODM2NzcyNzk4NzQyNSw0MDMuODMzMzMzMzMzMzMzMywzOTYuNDEyMTUxMTM5OTM3MSw0MzAuNjY2NjY2NjY2NjY2Nyw0MDcuNTI2Mzg4MDY5OTY4NTYsNDQ5LjgzMzMzMzMzMzMzMzNDNDE4LjY0MDYyNSw0NjksNDE4LjY0MDYyNSw0ODAuNSw0MTguNjQwNjI1LDQ4Ni4yNUw0MTguNjQwNjI1LDQ5MiI+PC9wYXRoPjwvZz48ZyBjbGFzcz0iZWRnZUxhYmVscyI+PGcgdHJhbnNmb3JtPSJ0cmFuc2xhdGUoOTYuNzkyOTY4NzUsIDE5Mi41KSIgY2xhc3M9ImVkZ2VMYWJlbCI+PGcgdHJhbnNmb3JtPSJ0cmFuc2xhdGUoLTQwLjgzNTkzNzUsIC05LjUpIiBjbGFzcz0ibGFiZWwiPjxyZWN0IGhlaWdodD0iMTkuMDAwMTQ2ODY1ODQ0NzI3IiB3aWR0aD0iODEuNjI1NjMzMjM5NzQ2MSIgcnk9IjAiIHJ4PSIwIj48L3JlY3Q+PHRleHQgc3R5bGU9IiI+PHRzcGFuIGNsYXNzPSJyb3ciIHg9IjAiIGR5PSIxZW0iIHhtbDpzcGFjZT0icHJlc2VydmUiPiIxIHRvIG1hbnkiPC90c3Bhbj48L3RleHQ+PC9nPjwvZz48ZyB0cmFuc2Zvcm09InRyYW5zbGF0ZSgzMDguODc4OTA2MjUsIDE5Mi41KSIgY2xhc3M9ImVkZ2VMYWJlbCI+PGcgdHJhbnNmb3JtPSJ0cmFuc2xhdGUoLTU3LjU4NTkzNzUsIC05LjUpIiBjbGFzcz0ibGFiZWwiPjxyZWN0IGhlaWdodD0iMTkuMDAwMTQ2ODY1ODQ0NzI3IiB3aWR0aD0iMTE1LjExMDI2NzYzOTE2MDE2IiByeT0iMCIgcng9IjAiPjwvcmVjdD48dGV4dCBzdHlsZT0iIj48dHNwYW4gY2xhc3M9InJvdyIgeD0iMCIgZHk9IjFlbSIgeG1sOnNwYWNlPSJwcmVzZXJ2ZSI+InNlbmRzIHJlcXVlc3RzIjwvdHNwYW4+PC90ZXh0PjwvZz48L2c+PGcgdHJhbnNmb3JtPSJ0cmFuc2xhdGUoMTk5LjExNzE4NzUsIDQ1Ny41KSIgY2xhc3M9ImVkZ2VMYWJlbCI+PGcgdHJhbnNmb3JtPSJ0cmFuc2xhdGUoLTMyLjUsIC05LjUpIiBjbGFzcz0ibGFiZWwiPjxyZWN0IGhlaWdodD0iMTkuMDAwMTQ2ODY1ODQ0NzI3IiB3aWR0aD0iNjQuOTY5MjUzNTQwMDM5MDYiIHJ5PSIwIiByeD0iMCI+PC9yZWN0Pjx0ZXh0IHN0eWxlPSIiPjx0c3BhbiBjbGFzcz0icm93IiB4PSIwIiBkeT0iMWVtIiB4bWw6c3BhY2U9InByZXNlcnZlIj4idHJpZ2dlcnMiPC90c3Bhbj48L3RleHQ+PC9nPjwvZz48ZyB0cmFuc2Zvcm09InRyYW5zbGF0ZSgxMTguNzQwMjM0Mzc1LCA2NTMuNSkiIGNsYXNzPSJlZGdlTGFiZWwiPjxnIHRyYW5zZm9ybT0idHJhbnNsYXRlKC0zNy4wNzAzMTI1LCAtOS41KSIgY2xhc3M9ImxhYmVsIj48cmVjdCBoZWlnaHQ9IjE5LjAwMDE0Njg2NTg0NDcyNyIgd2lkdGg9Ijc0LjA5NDMyMjIwNDU4OTg0IiByeT0iMCIgcng9IjAiPjwvcmVjdD48dGV4dCBzdHlsZT0iIj48dHNwYW4gY2xhc3M9InJvdyIgeD0iMCIgZHk9IjFlbSIgeG1sOnNwYWNlPSJwcmVzZXJ2ZSI+ImludGVyYWN0cyI8L3RzcGFuPjwvdGV4dD48L2c+PC9nPjxnIHRyYW5zZm9ybT0idHJhbnNsYXRlKDI3OS40OTQxNDA2MjUsIDY1My41KSIgY2xhc3M9ImVkZ2VMYWJlbCI+PGcgdHJhbnNmb3JtPSJ0cmFuc2xhdGUoLTI4Ljk3NjU2MjUsIC05LjUpIiBjbGFzcz0ibGFiZWwiPjxyZWN0IGhlaWdodD0iMTkuMDAwMTQ2ODY1ODQ0NzI3IiB3aWR0aD0iNTcuOTIyMzI1MTM0Mjc3MzQ0IiByeT0iMCIgcng9IjAiPjwvcmVjdD48dGV4dCBzdHlsZT0iIj48dHNwYW4gY2xhc3M9InJvdyIgeD0iMCIgZHk9IjFlbSIgeG1sOnNwYWNlPSJwcmVzZXJ2ZSI+ImxvZ3MgdG8iPC90c3Bhbj48L3RleHQ+PC9nPjwvZz48ZyB0cmFuc2Zvcm09InRyYW5zbGF0ZSg0MTguNjQwNjI1LCA0NTcuNSkiIGNsYXNzPSJlZGdlTGFiZWwiPjxnIHRyYW5zZm9ybT0idHJhbnNsYXRlKC01NC40Mzc1LCAtOS41KSIgY2xhc3M9ImxhYmVsIj48cmVjdCBoZWlnaHQ9IjE5LjAwMDE0Njg2NTg0NDcyNyIgd2lkdGg9IjEwOC44MTMzNDY4NjI3OTI5NyIgcnk9IjAiIHJ4PSIwIj48L3JlY3Q+PHRleHQgc3R5bGU9IiI+PHRzcGFuIGNsYXNzPSJyb3ciIHg9IjAiIGR5PSIxZW0iIHhtbDpzcGFjZT0icHJlc2VydmUiPiJhdXRoZW50aWNhdGVzIjwvdHNwYW4+PC90ZXh0PjwvZz48L2c+PC9nPjxnIGNsYXNzPSJub2RlcyI+PGcgdHJhbnNmb3JtPSJ0cmFuc2xhdGUoOTYuNzkyOTY4NzUsIDgzKSIgaWQ9ImNsYXNzaWQtVXNlci03IiBjbGFzcz0ibm9kZSBkZWZhdWx0Ij48cmVjdCBoZWlnaHQ9IjE1MCIgd2lkdGg9IjE0NSIgeT0iLTc1IiB4PSItNzIuNSIgY2xhc3M9Im91dGVyIHRpdGxlLXN0YXRlIj48L3JlY3Q+PGxpbmUgeTI9Ii00NCIgeTE9Ii00NCIgeDI9IjcyLjUiIHgxPSItNzIuNSIgY2xhc3M9ImRpdmlkZXIiPjwvbGluZT48bGluZSB5Mj0iNjQiIHkxPSI2NCIgeDI9IjcyLjUiIHgxPSItNzIuNSIgY2xhc3M9ImRpdmlkZXIiPjwvbGluZT48ZyBjbGFzcz0ibGFiZWwiPjx0ZXh0IHN0eWxlPSIiPjx0c3BhbiBjbGFzcz0idGl0bGUtcm93IiB4PSIwIiBkeT0iMWVtIiB4bWw6c3BhY2U9InByZXNlcnZlIj48L3RzcGFuPjwvdGV4dD48dGV4dCB0cmFuc2Zvcm09InRyYW5zbGF0ZSggLTE3LjQ2NDg0Mzc1LCAtNjcuNSkiIGNsYXNzPSJjbGFzc1RpdGxlIiBzdHlsZT0iIj48dHNwYW4gY2xhc3M9InRpdGxlLXJvdyIgeD0iMCIgZHk9IjFlbSIgeG1sOnNwYWNlPSJwcmVzZXJ2ZSI+VXNlcjwvdHNwYW4+PC90ZXh0Pjx0ZXh0IHRyYW5zZm9ybT0idHJhbnNsYXRlKCAtNjUsIC0zMi41KSIgc3R5bGU9IiI+PHRzcGFuIGNsYXNzPSJ0aXRsZS1yb3ciIHg9IjAiIGR5PSIxZW0iIHhtbDpzcGFjZT0icHJlc2VydmUiPit1c2VySWQ6IFN0cmluZzwvdHNwYW4+PC90ZXh0Pjx0ZXh0IHRyYW5zZm9ybT0idHJhbnNsYXRlKCAtNjUsIC05LjUpIiBzdHlsZT0iIj48dHNwYW4gY2xhc3M9InRpdGxlLXJvdyIgeD0iMCIgZHk9IjFlbSIgeG1sOnNwYWNlPSJwcmVzZXJ2ZSI+K3VzZXJuYW1lOiBTdHJpbmc8L3RzcGFuPjwvdGV4dD48dGV4dCB0cmFuc2Zvcm09InRyYW5zbGF0ZSggLTY1LCAxMy41KSIgc3R5bGU9IiI+PHRzcGFuIGNsYXNzPSJ0aXRsZS1yb3ciIHg9IjAiIGR5PSIxZW0iIHhtbDpzcGFjZT0icHJlc2VydmUiPitwYXNzd29yZDogU3RyaW5nPC90c3Bhbj48L3RleHQ+PHRleHQgdHJhbnNmb3JtPSJ0cmFuc2xhdGUoIC02NSwgMzYuNSkiIHN0eWxlPSIiPjx0c3BhbiBjbGFzcz0idGl0bGUtcm93IiB4PSIwIiBkeT0iMWVtIiB4bWw6c3BhY2U9InByZXNlcnZlIj4rZW1haWw6IFN0cmluZzwvdHNwYW4+PC90ZXh0PjwvZz48L2c+PGcgdHJhbnNmb3JtPSJ0cmFuc2xhdGUoOTYuNzkyOTY4NzUsIDMyNSkiIGlkPSJjbGFzc2lkLVRhc2stOCIgY2xhc3M9Im5vZGUgZGVmYXVsdCI+PHJlY3QgaGVpZ2h0PSIxOTYiIHdpZHRoPSIxNzcuNTg1OTM3NSIgeT0iLTk4IiB4PSItODguNzkyOTY4NzUiIGNsYXNzPSJvdXRlciB0aXRsZS1zdGF0ZSI+PC9yZWN0PjxsaW5lIHkyPSItNjciIHkxPSItNjciIHgyPSI4OC43OTI5Njg3NSIgeDE9Ii04OC43OTI5Njg3NSIgY2xhc3M9ImRpdmlkZXIiPjwvbGluZT48bGluZSB5Mj0iODciIHkxPSI4NyIgeDI9Ijg4Ljc5Mjk2ODc1IiB4MT0iLTg4Ljc5Mjk2ODc1IiBjbGFzcz0iZGl2aWRlciI+PC9saW5lPjxnIGNsYXNzPSJsYWJlbCI+PHRleHQgc3R5bGU9IiI+PHRzcGFuIGNsYXNzPSJ0aXRsZS1yb3ciIHg9IjAiIGR5PSIxZW0iIHhtbDpzcGFjZT0icHJlc2VydmUiPjwvdHNwYW4+PC90ZXh0Pjx0ZXh0IHRyYW5zZm9ybT0idHJhbnNsYXRlKCAtMTcuMjE0ODQzNzUsIC05MC41KSIgY2xhc3M9ImNsYXNzVGl0bGUiIHN0eWxlPSIiPjx0c3BhbiBjbGFzcz0idGl0bGUtcm93IiB4PSIwIiBkeT0iMWVtIiB4bWw6c3BhY2U9InByZXNlcnZlIj5UYXNrPC90c3Bhbj48L3RleHQ+PHRleHQgdHJhbnNmb3JtPSJ0cmFuc2xhdGUoIC04MS4yOTI5Njg3NSwgLTU1LjUpIiBzdHlsZT0iIj48dHNwYW4gY2xhc3M9InRpdGxlLXJvdyIgeD0iMCIgZHk9IjFlbSIgeG1sOnNwYWNlPSJwcmVzZXJ2ZSI+K3Rhc2tJZDogU3RyaW5nPC90c3Bhbj48L3RleHQ+PHRleHQgdHJhbnNmb3JtPSJ0cmFuc2xhdGUoIC04MS4yOTI5Njg3NSwgLTMyLjUpIiBzdHlsZT0iIj48dHNwYW4gY2xhc3M9InRpdGxlLXJvdyIgeD0iMCIgZHk9IjFlbSIgeG1sOnNwYWNlPSJwcmVzZXJ2ZSI+K3VzZXJJZDogU3RyaW5nPC90c3Bhbj48L3RleHQ+PHRleHQgdHJhbnNmb3JtPSJ0cmFuc2xhdGUoIC04MS4yOTI5Njg3NSwgLTkuNSkiIHN0eWxlPSIiPjx0c3BhbiBjbGFzcz0idGl0bGUtcm93IiB4PSIwIiBkeT0iMWVtIiB4bWw6c3BhY2U9InByZXNlcnZlIj4rZGVzY3JpcHRpb246IFN0cmluZzwvdHNwYW4+PC90ZXh0Pjx0ZXh0IHRyYW5zZm9ybT0idHJhbnNsYXRlKCAtODEuMjkyOTY4NzUsIDEzLjUpIiBzdHlsZT0iIj48dHNwYW4gY2xhc3M9InRpdGxlLXJvdyIgeD0iMCIgZHk9IjFlbSIgeG1sOnNwYWNlPSJwcmVzZXJ2ZSI+K3N0YXR1czogU3RyaW5nPC90c3Bhbj48L3RleHQ+PHRleHQgdHJhbnNmb3JtPSJ0cmFuc2xhdGUoIC04MS4yOTI5Njg3NSwgMzYuNSkiIHN0eWxlPSIiPjx0c3BhbiBjbGFzcz0idGl0bGUtcm93IiB4PSIwIiBkeT0iMWVtIiB4bWw6c3BhY2U9InByZXNlcnZlIj4rY3JlYXRlZEF0OiBEYXRlVGltZTwvdHNwYW4+PC90ZXh0Pjx0ZXh0IHRyYW5zZm9ybT0idHJhbnNsYXRlKCAtODEuMjkyOTY4NzUsIDU5LjUpIiBzdHlsZT0iIj48dHNwYW4gY2xhc3M9InRpdGxlLXJvdyIgeD0iMCIgZHk9IjFlbSIgeG1sOnNwYWNlPSJwcmVzZXJ2ZSI+K3VwZGF0ZWRBdDogRGF0ZVRpbWU8L3RzcGFuPjwvdGV4dD48L2c+PC9nPjxnIHRyYW5zZm9ybT0idHJhbnNsYXRlKDMwOC44Nzg5MDYyNSwgODMpIiBpZD0iY2xhc3NpZC1DbGllbnQtOSIgY2xhc3M9Im5vZGUgZGVmYXVsdCI+PHJlY3QgaGVpZ2h0PSIxMjciIHdpZHRoPSIxNjcuMTQwNjI1IiB5PSItNjMuNSIgeD0iLTgzLjU3MDMxMjUiIGNsYXNzPSJvdXRlciB0aXRsZS1zdGF0ZSI+PC9yZWN0PjxsaW5lIHkyPSItMzIuNSIgeTE9Ii0zMi41IiB4Mj0iODMuNTcwMzEyNSIgeDE9Ii04My41NzAzMTI1IiBjbGFzcz0iZGl2aWRlciI+PC9saW5lPjxsaW5lIHkyPSI1Mi41IiB5MT0iNTIuNSIgeDI9IjgzLjU3MDMxMjUiIHgxPSItODMuNTcwMzEyNSIgY2xhc3M9ImRpdmlkZXIiPjwvbGluZT48ZyBjbGFzcz0ibGFiZWwiPjx0ZXh0IHN0eWxlPSIiPjx0c3BhbiBjbGFzcz0idGl0bGUtcm93IiB4PSIwIiBkeT0iMWVtIiB4bWw6c3BhY2U9InByZXNlcnZlIj48L3RzcGFuPjwvdGV4dD48dGV4dCB0cmFuc2Zvcm09InRyYW5zbGF0ZSggLTIyLjQ2MDkzNzUsIC01NikiIGNsYXNzPSJjbGFzc1RpdGxlIiBzdHlsZT0iIj48dHNwYW4gY2xhc3M9InRpdGxlLXJvdyIgeD0iMCIgZHk9IjFlbSIgeG1sOnNwYWNlPSJwcmVzZXJ2ZSI+Q2xpZW50PC90c3Bhbj48L3RleHQ+PHRleHQgdHJhbnNmb3JtPSJ0cmFuc2xhdGUoIC03Ni4wNzAzMTI1LCAtMjEpIiBzdHlsZT0iIj48dHNwYW4gY2xhc3M9InRpdGxlLXJvdyIgeD0iMCIgZHk9IjFlbSIgeG1sOnNwYWNlPSJwcmVzZXJ2ZSI+K3dlYkNsaWVudDogU3RyaW5nPC90c3Bhbj48L3RleHQ+PHRleHQgdHJhbnNmb3JtPSJ0cmFuc2xhdGUoIC03Ni4wNzAzMTI1LCAyKSIgc3R5bGU9IiI+PHRzcGFuIGNsYXNzPSJ0aXRsZS1yb3ciIHg9IjAiIGR5PSIxZW0iIHhtbDpzcGFjZT0icHJlc2VydmUiPittb2JpbGVDbGllbnQ6IFN0cmluZzwvdHNwYW4+PC90ZXh0Pjx0ZXh0IHRyYW5zZm9ybT0idHJhbnNsYXRlKCAtNzYuMDcwMzEyNSwgMjUpIiBzdHlsZT0iIj48dHNwYW4gY2xhc3M9InRpdGxlLXJvdyIgeD0iMCIgZHk9IjFlbSIgeG1sOnNwYWNlPSJwcmVzZXJ2ZSI+JmFtcDtsdDsmYW1wO2d0OzwvdHNwYW4+PC90ZXh0PjwvZz48L2c+PGcgdHJhbnNmb3JtPSJ0cmFuc2xhdGUoMzA4Ljg3ODkwNjI1LCAzMjUpIiBpZD0iY2xhc3NpZC1BUElHYXRld2F5LTEwIiBjbGFzcz0ibm9kZSBkZWZhdWx0Ij48cmVjdCBoZWlnaHQ9IjEwNCIgd2lkdGg9IjE0Ni41ODU5Mzc1IiB5PSItNTIiIHg9Ii03My4yOTI5Njg3NSIgY2xhc3M9Im91dGVyIHRpdGxlLXN0YXRlIj48L3JlY3Q+PGxpbmUgeTI9Ii0yMSIgeTE9Ii0yMSIgeDI9IjczLjI5Mjk2ODc1IiB4MT0iLTczLjI5Mjk2ODc1IiBjbGFzcz0iZGl2aWRlciI+PC9saW5lPjxsaW5lIHkyPSIxOCIgeTE9IjE4IiB4Mj0iNzMuMjkyOTY4NzUiIHgxPSItNzMuMjkyOTY4NzUiIGNsYXNzPSJkaXZpZGVyIj48L2xpbmU+PGcgY2xhc3M9ImxhYmVsIj48dGV4dCBzdHlsZT0iIj48dHNwYW4gY2xhc3M9InRpdGxlLXJvdyIgeD0iMCIgZHk9IjFlbSIgeG1sOnNwYWNlPSJwcmVzZXJ2ZSI+PC90c3Bhbj48L3RleHQ+PHRleHQgdHJhbnNmb3JtPSJ0cmFuc2xhdGUoIC00NC45MjE4NzUsIC00NC41KSIgY2xhc3M9ImNsYXNzVGl0bGUiIHN0eWxlPSIiPjx0c3BhbiBjbGFzcz0idGl0bGUtcm93IiB4PSIwIiBkeT0iMWVtIiB4bWw6c3BhY2U9InByZXNlcnZlIj5BUElHYXRld2F5PC90c3Bhbj48L3RleHQ+PHRleHQgdHJhbnNmb3JtPSJ0cmFuc2xhdGUoIC02NS43OTI5Njg3NSwgLTkuNSkiIHN0eWxlPSIiPjx0c3BhbiBjbGFzcz0idGl0bGUtcm93IiB4PSIwIiBkeT0iMWVtIiB4bWw6c3BhY2U9InByZXNlcnZlIj4mYW1wO2x0OyZhbXA7Z3Q7PC90c3Bhbj48L3RleHQ+PHRleHQgdHJhbnNmb3JtPSJ0cmFuc2xhdGUoIC02NS43OTI5Njg3NSwgMjUuNSkiIHN0eWxlPSIiPjx0c3BhbiBjbGFzcz0idGl0bGUtcm93IiB4PSIwIiBkeT0iMWVtIiB4bWw6c3BhY2U9InByZXNlcnZlIj4raGFuZGxlUmVxdWVzdHMoKTwvdHNwYW4+PC90ZXh0PjwvZz48L2c+PGcgdHJhbnNmb3JtPSJ0cmFuc2xhdGUoMTk5LjExNzE4NzUsIDU1NS41KSIgaWQ9ImNsYXNzaWQtTGFtYmRhRnVuY3Rpb24tMTEiIGNsYXNzPSJub2RlIGRlZmF1bHQiPjxyZWN0IGhlaWdodD0iMTI3IiB3aWR0aD0iMTc5Ljk3NjU2MjUiIHk9Ii02My41IiB4PSItODkuOTg4MjgxMjUiIGNsYXNzPSJvdXRlciB0aXRsZS1zdGF0ZSI+PC9yZWN0PjxsaW5lIHkyPSItMzIuNSIgeTE9Ii0zMi41IiB4Mj0iODkuOTg4MjgxMjUiIHgxPSItODkuOTg4MjgxMjUiIGNsYXNzPSJkaXZpZGVyIj48L2xpbmU+PGxpbmUgeTI9IjYuNSIgeTE9IjYuNSIgeDI9Ijg5Ljk4ODI4MTI1IiB4MT0iLTg5Ljk4ODI4MTI1IiBjbGFzcz0iZGl2aWRlciI+PC9saW5lPjxnIGNsYXNzPSJsYWJlbCI+PHRleHQgc3R5bGU9IiI+PHRzcGFuIGNsYXNzPSJ0aXRsZS1yb3ciIHg9IjAiIGR5PSIxZW0iIHhtbDpzcGFjZT0icHJlc2VydmUiPjwvdHNwYW4+PC90ZXh0Pjx0ZXh0IHRyYW5zZm9ybT0idHJhbnNsYXRlKCAtNjEuNzY1NjI1LCAtNTYpIiBjbGFzcz0iY2xhc3NUaXRsZSIgc3R5bGU9IiI+PHRzcGFuIGNsYXNzPSJ0aXRsZS1yb3ciIHg9IjAiIGR5PSIxZW0iIHhtbDpzcGFjZT0icHJlc2VydmUiPkxhbWJkYUZ1bmN0aW9uPC90c3Bhbj48L3RleHQ+PHRleHQgdHJhbnNmb3JtPSJ0cmFuc2xhdGUoIC04Mi40ODgyODEyNSwgLTIxKSIgc3R5bGU9IiI+PHRzcGFuIGNsYXNzPSJ0aXRsZS1yb3ciIHg9IjAiIGR5PSIxZW0iIHhtbDpzcGFjZT0icHJlc2VydmUiPiZhbXA7bHQ7JmFtcDtndDs8L3RzcGFuPjwvdGV4dD48dGV4dCB0cmFuc2Zvcm09InRyYW5zbGF0ZSggLTgyLjQ4ODI4MTI1LCAxNCkiIHN0eWxlPSIiPjx0c3BhbiBjbGFzcz0idGl0bGUtcm93IiB4PSIwIiBkeT0iMWVtIiB4bWw6c3BhY2U9InByZXNlcnZlIj4raGFuZGxlQnVzaW5lc3NMb2dpYygpPC90c3Bhbj48L3RleHQ+PHRleHQgdHJhbnNmb3JtPSJ0cmFuc2xhdGUoIC04Mi40ODgyODEyNSwgMzcpIiBzdHlsZT0iIj48dHNwYW4gY2xhc3M9InRpdGxlLXJvdyIgeD0iMCIgZHk9IjFlbSIgeG1sOnNwYWNlPSJwcmVzZXJ2ZSI+K3ZhbGlkYXRlSW5wdXQoKTwvdHNwYW4+PC90ZXh0PjwvZz48L2c+PGcgdHJhbnNmb3JtPSJ0cmFuc2xhdGUoMTE4Ljc0MDIzNDM3NSwgNzc0LjUpIiBpZD0iY2xhc3NpZC1EeW5hbW9EQi0xMiIgY2xhc3M9Im5vZGUgZGVmYXVsdCI+PHJlY3QgaGVpZ2h0PSIxNzMiIHdpZHRoPSIxMTguMTE3MTg3NSIgeT0iLTg2LjUiIHg9Ii01OS4wNTg1OTM3NSIgY2xhc3M9Im91dGVyIHRpdGxlLXN0YXRlIj48L3JlY3Q+PGxpbmUgeTI9Ii01NS41IiB5MT0iLTU1LjUiIHgyPSI1OS4wNTg1OTM3NSIgeDE9Ii01OS4wNTg1OTM3NSIgY2xhc3M9ImRpdmlkZXIiPjwvbGluZT48bGluZSB5Mj0iLTE2LjUiIHkxPSItMTYuNSIgeDI9IjU5LjA1ODU5Mzc1IiB4MT0iLTU5LjA1ODU5Mzc1IiBjbGFzcz0iZGl2aWRlciI+PC9saW5lPjxnIGNsYXNzPSJsYWJlbCI+PHRleHQgc3R5bGU9IiI+PHRzcGFuIGNsYXNzPSJ0aXRsZS1yb3ciIHg9IjAiIGR5PSIxZW0iIHhtbDpzcGFjZT0icHJlc2VydmUiPjwvdHNwYW4+PC90ZXh0Pjx0ZXh0IHRyYW5zZm9ybT0idHJhbnNsYXRlKCAtMzkuOTM3NSwgLTc5KSIgY2xhc3M9ImNsYXNzVGl0bGUiIHN0eWxlPSIiPjx0c3BhbiBjbGFzcz0idGl0bGUtcm93IiB4PSIwIiBkeT0iMWVtIiB4bWw6c3BhY2U9InByZXNlcnZlIj5EeW5hbW9EQjwvdHNwYW4+PC90ZXh0Pjx0ZXh0IHRyYW5zZm9ybT0idHJhbnNsYXRlKCAtNTEuNTU4NTkzNzUsIC00NCkiIHN0eWxlPSIiPjx0c3BhbiBjbGFzcz0idGl0bGUtcm93IiB4PSIwIiBkeT0iMWVtIiB4bWw6c3BhY2U9InByZXNlcnZlIj4mYW1wO2x0OyZhbXA7Z3Q7PC90c3Bhbj48L3RleHQ+PHRleHQgdHJhbnNmb3JtPSJ0cmFuc2xhdGUoIC01MS41NTg1OTM3NSwgLTkpIiBzdHlsZT0iIj48dHNwYW4gY2xhc3M9InRpdGxlLXJvdyIgeD0iMCIgZHk9IjFlbSIgeG1sOnNwYWNlPSJwcmVzZXJ2ZSI+K3B1dEl0ZW0oKTwvdHNwYW4+PC90ZXh0Pjx0ZXh0IHRyYW5zZm9ybT0idHJhbnNsYXRlKCAtNTEuNTU4NTkzNzUsIDE0KSIgc3R5bGU9IiI+PHRzcGFuIGNsYXNzPSJ0aXRsZS1yb3ciIHg9IjAiIGR5PSIxZW0iIHhtbDpzcGFjZT0icHJlc2VydmUiPitnZXRJdGVtKCk8L3RzcGFuPjwvdGV4dD48dGV4dCB0cmFuc2Zvcm09InRyYW5zbGF0ZSggLTUxLjU1ODU5Mzc1LCAzNykiIHN0eWxlPSIiPjx0c3BhbiBjbGFzcz0idGl0bGUtcm93IiB4PSIwIiBkeT0iMWVtIiB4bWw6c3BhY2U9InByZXNlcnZlIj4rdXBkYXRlSXRlbSgpPC90c3Bhbj48L3RleHQ+PHRleHQgdHJhbnNmb3JtPSJ0cmFuc2xhdGUoIC01MS41NTg1OTM3NSwgNjApIiBzdHlsZT0iIj48dHNwYW4gY2xhc3M9InRpdGxlLXJvdyIgeD0iMCIgZHk9IjFlbSIgeG1sOnNwYWNlPSJwcmVzZXJ2ZSI+K2RlbGV0ZUl0ZW0oKTwvdHNwYW4+PC90ZXh0PjwvZz48L2c+PGcgdHJhbnNmb3JtPSJ0cmFuc2xhdGUoMjc5LjQ5NDE0MDYyNSwgNzc0LjUpIiBpZD0iY2xhc3NpZC1DbG91ZFdhdGNoLTEzIiBjbGFzcz0ibm9kZSBkZWZhdWx0Ij48cmVjdCBoZWlnaHQ9IjEwNCIgd2lkdGg9IjEwMy4zOTA2MjUiIHk9Ii01MiIgeD0iLTUxLjY5NTMxMjUiIGNsYXNzPSJvdXRlciB0aXRsZS1zdGF0ZSI+PC9yZWN0PjxsaW5lIHkyPSItMjEiIHkxPSItMjEiIHgyPSI1MS42OTUzMTI1IiB4MT0iLTUxLjY5NTMxMjUiIGNsYXNzPSJkaXZpZGVyIj48L2xpbmU+PGxpbmUgeTI9IjE4IiB5MT0iMTgiIHgyPSI1MS42OTUzMTI1IiB4MT0iLTUxLjY5NTMxMjUiIGNsYXNzPSJkaXZpZGVyIj48L2xpbmU+PGcgY2xhc3M9ImxhYmVsIj48dGV4dCBzdHlsZT0iIj48dHNwYW4gY2xhc3M9InRpdGxlLXJvdyIgeD0iMCIgZHk9IjFlbSIgeG1sOnNwYWNlPSJwcmVzZXJ2ZSI+PC90c3Bhbj48L3RleHQ+PHRleHQgdHJhbnNmb3JtPSJ0cmFuc2xhdGUoIC00NC4xOTUzMTI1LCAtNDQuNSkiIGNsYXNzPSJjbGFzc1RpdGxlIiBzdHlsZT0iIj48dHNwYW4gY2xhc3M9InRpdGxlLXJvdyIgeD0iMCIgZHk9IjFlbSIgeG1sOnNwYWNlPSJwcmVzZXJ2ZSI+Q2xvdWRXYXRjaDwvdHNwYW4+PC90ZXh0Pjx0ZXh0IHRyYW5zZm9ybT0idHJhbnNsYXRlKCAtNDQuMTk1MzEyNSwgLTkuNSkiIHN0eWxlPSIiPjx0c3BhbiBjbGFzcz0idGl0bGUtcm93IiB4PSIwIiBkeT0iMWVtIiB4bWw6c3BhY2U9InByZXNlcnZlIj4mYW1wO2x0OyZhbXA7Z3Q7PC90c3Bhbj48L3RleHQ+PHRleHQgdHJhbnNmb3JtPSJ0cmFuc2xhdGUoIC00NC4xOTUzMTI1LCAyNS41KSIgc3R5bGU9IiI+PHRzcGFuIGNsYXNzPSJ0aXRsZS1yb3ciIHg9IjAiIGR5PSIxZW0iIHhtbDpzcGFjZT0icHJlc2VydmUiPitsb2coKTwvdHNwYW4+PC90ZXh0PjwvZz48L2c+PGcgdHJhbnNmb3JtPSJ0cmFuc2xhdGUoNDE4LjY0MDYyNSwgNTU1LjUpIiBpZD0iY2xhc3NpZC1Db2duaXRvLTE0IiBjbGFzcz0ibm9kZSBkZWZhdWx0Ij48cmVjdCBoZWlnaHQ9IjEyNyIgd2lkdGg9IjE1OS4wNzAzMTI1IiB5PSItNjMuNSIgeD0iLTc5LjUzNTE1NjI1IiBjbGFzcz0ib3V0ZXIgdGl0bGUtc3RhdGUiPjwvcmVjdD48bGluZSB5Mj0iLTMyLjUiIHkxPSItMzIuNSIgeDI9Ijc5LjUzNTE1NjI1IiB4MT0iLTc5LjUzNTE1NjI1IiBjbGFzcz0iZGl2aWRlciI+PC9saW5lPjxsaW5lIHkyPSI2LjUiIHkxPSI2LjUiIHgyPSI3OS41MzUxNTYyNSIgeDE9Ii03OS41MzUxNTYyNSIgY2xhc3M9ImRpdmlkZXIiPjwvbGluZT48ZyBjbGFzcz0ibGFiZWwiPjx0ZXh0IHN0eWxlPSIiPjx0c3BhbiBjbGFzcz0idGl0bGUtcm93IiB4PSIwIiBkeT0iMWVtIiB4bWw6c3BhY2U9InByZXNlcnZlIj48L3RzcGFuPjwvdGV4dD48dGV4dCB0cmFuc2Zvcm09InRyYW5zbGF0ZSggLTI4LjI1LCAtNTYpIiBjbGFzcz0iY2xhc3NUaXRsZSIgc3R5bGU9IiI+PHRzcGFuIGNsYXNzPSJ0aXRsZS1yb3ciIHg9IjAiIGR5PSIxZW0iIHhtbDpzcGFjZT0icHJlc2VydmUiPkNvZ25pdG88L3RzcGFuPjwvdGV4dD48dGV4dCB0cmFuc2Zvcm09InRyYW5zbGF0ZSggLTcyLjAzNTE1NjI1LCAtMjEpIiBzdHlsZT0iIj48dHNwYW4gY2xhc3M9InRpdGxlLXJvdyIgeD0iMCIgZHk9IjFlbSIgeG1sOnNwYWNlPSJwcmVzZXJ2ZSI+JmFtcDtsdDsmYW1wO2d0OzwvdHNwYW4+PC90ZXh0Pjx0ZXh0IHRyYW5zZm9ybT0idHJhbnNsYXRlKCAtNzIuMDM1MTU2MjUsIDE0KSIgc3R5bGU9IiI+PHRzcGFuIGNsYXNzPSJ0aXRsZS1yb3ciIHg9IjAiIGR5PSIxZW0iIHhtbDpzcGFjZT0icHJlc2VydmUiPithdXRoZW50aWNhdGVVc2VyKCk8L3RzcGFuPjwvdGV4dD48dGV4dCB0cmFuc2Zvcm09InRyYW5zbGF0ZSggLTcyLjAzNTE1NjI1LCAzNykiIHN0eWxlPSIiPjx0c3BhbiBjbGFzcz0idGl0bGUtcm93IiB4PSIwIiBkeT0iMWVtIiB4bWw6c3BhY2U9InByZXNlcnZlIj4rYXV0aG9yaXplVXNlcigpPC90c3Bhbj48L3RleHQ+PC9nPjwvZz48L2c+PC9nPjwvZz48L3N2Zz4=;" vertex="1" parent="1">
                        <mxGeometry x="190" width="100" height="869" as="geometry"/>
                    </mxCell>
                </UserObject>
            </root>
        </mxGraphModel>
    </diagram>
</mxfile>